<?xml version="1.0" standalone="no"?>
<!DOCTYPE svg PUBLIC "-//W3C//DTD SVG 1.1//EN" "http://www.w3.org/Graphics/SVG/1.1/DTD/svg11.dtd" >
<svg xmlns="http://www.w3.org/2000/svg">
<metadata>Generated by IcoMoon</metadata>
<defs>
<font id="icomoon" horiz-adv-x="1024">
<font-face units-per-em="1024" ascent="812" descent="-212" />
<missing-glyph horiz-adv-x="1024" />
<glyph unicode="&#x20;" d="" />
<glyph unicode="&#x78;" glyph-name="x" horiz-adv-x="100" d="M20 8h30v-40z" />
<glyph unicode="&#xe006;" glyph-name="bilibili-line" d="M275.106 732.905l159.074-160.485h155.59l159.123 160.435c19.172 19.336 50.257 19.336 69.429 0s19.172-50.687 0-70.023l-89.743-90.412h102.353c94.846 0 171.733-77.546 171.733-173.203v-395.892c0-95.657-76.888-173.203-171.733-173.203h-637.867c-94.846 0-171.733 77.545-171.733 173.203v395.892c0 95.657 76.888 173.203 171.733 173.203h102.304l-89.694 90.511c-19.172 19.337-19.172 50.687 0 70.023s50.257 19.336 69.429 0v-0.049zM830.933 473.448h-637.867c-37.91 0-69.617-29.046-73.257-67.104l-0.343-7.126v-395.892c0-38.234 28.799-70.213 66.534-73.883l7.066-0.346h637.867c37.91 0 69.617 29.046 73.257 67.104l0.343 7.126v395.892c0 40.996-32.952 74.23-73.6 74.23zM315.733 324.988c27.099 0 49.067-22.156 49.067-49.487v-98.973c0-27.331-21.968-49.486-49.067-49.486s-49.067 22.156-49.067 49.486v98.973c0 27.331 21.968 49.487 49.067 49.487zM708.267 324.988c27.099 0 49.067-22.156 49.067-49.487v-98.973c0-27.331-21.968-49.486-49.067-49.486s-49.067 22.156-49.067 49.486v98.973c0 27.331 21.968 49.487 49.067 49.487z" />
<glyph unicode="&#xe007;" glyph-name="github-line" d="M234.413-39.621c-15.026 9.999-27.949 22.747-43.076 40.795-7.852 9.591-15.632 19.241-23.341 28.947-23.191 28.747-37.816 41.995-52.943 47.444-26.045 9.333-39.578 37.972-30.228 63.968s38.043 39.504 64.088 30.172c37.666-13.499 63.161-36.746 97.521-79.391-4.708 5.849 17.030-21.348 21.688-26.947 9.517-11.349 16.529-18.248 22.039-21.897 10.218-6.849 29.402-9.799 57.601-6.999 1.152 19.098 4.708 37.646 10.118 54.744-148.661 36.296-232.809 131.985-232.809 319.763 0 61.993 18.533 117.787 52.993 164.581-10.919 44.695-9.266 98.739 15.126 159.582 5.606 13.938 17.192 24.621 31.555 29.097 4.057 1.2 6.361 1.75 10.418 2.35 40.221 6.149 97.020-8.499 171.050-54.794 44.117 10.295 89.28 15.462 134.586 15.398 45.68 0 91.060-5.199 134.436-15.398 73.98 46.645 130.88 61.293 171.401 54.794 4.257-0.65 7.864-1.5 10.919-2.5 14.077-4.633 25.375-15.251 30.854-28.997 24.393-60.793 26.046-114.837 15.127-159.482 34.611-46.795 52.993-102.238 52.993-164.631 0-187.828-83.847-283.217-232.508-319.563 6.261-20.748 9.517-43.945 9.517-68.992 0.005-45.262-0.196-90.524-0.601-135.784 23.186-5.048 39.641-25.645 39.41-49.331s-17.082-43.96-40.362-48.558c-57.050-11.399-99.324 26.597-99.324 76.241l0.1 22.297 0.25 35.246c0.25 35.396 0.351 66.892 0.351 99.889 0 34.846-9.166 57.593-21.287 67.992-33.108 28.497-16.329 82.74 27.048 87.59 148.611 16.648 217.232 74.091 217.232 232.973 0 47.745-15.627 87.19-45.73 120.186-12.942 14.155-16.638 34.448-9.517 52.244 8.315 20.698 11.871 47.845 4.808 80.691l-0.501-0.15c-24.593-6.949-55.598-21.997-93.063-47.445-12.229-8.284-27.499-10.754-41.723-6.749-42.279 11.684-85.958 17.554-129.828 17.448-44.578 0-88.756-5.949-129.828-17.498-14.171-3.972-29.375-1.522-41.573 6.699-37.666 25.347-68.821 40.345-93.564 47.344-7.213-32.646-3.656-59.693 4.608-80.341 7.135-17.787 3.458-38.078-9.467-52.244-29.903-32.696-45.73-72.892-45.73-120.186 0-158.582 68.671-216.375 216.48-232.973 43.326-4.85 60.156-58.843 27.248-87.39-9.617-8.399-21.488-36.596-21.488-68.192v-157.482c0-49.294-41.823-86.24-98.172-76.391-23.576 4.132-40.928 24.335-41.416 48.222s16.025 44.779 39.412 49.867v49.494c-45.58-3.050-83.246 4.399-112.898 24.247v0z" />
<glyph unicode="&#xe008;" glyph-name="dribbble-line" d="M900.438 312.556c-4.023 77.235-30.885 151.537-77.182 213.489-14.106-15.192-29.185-29.452-45.141-42.688-49.021-40.718-103.801-73.953-162.558-98.624 8.194-17.173 15.701-33.807 22.325-49.508v-0.147c1.869-4.387 3.668-8.804 5.397-13.248 74.287 8.341 152.597 5.299 228.504-4.956 10.108-1.374 19.627-2.846 28.655-4.318v0zM439.947 678.103c47.817-67.377 91.912-137.32 132.087-209.515 60.009 23.65 109.615 53.483 149.555 86.701 13.864 11.426 26.915 23.804 39.057 37.045-70.608 59.385-159.942 91.886-252.203 91.755-22.962 0.015-45.881-1.971-68.497-5.938v-0.049zM128.325 389.836c33.425 0.844 66.811 2.857 100.096 6.035 80.452 7.196 160.216 20.681 238.562 40.333-40.946 71.136-85.153 140.345-132.48 207.405-102.288-50.673-177.524-143.276-206.178-253.773v0zM203.397 44.505c19.038 27.821 44.062 59.125 77.28 93.178 71.343 73.109 155.541 130.027 252.988 161.429l3.042 0.883c-8.096 17.86-15.701 33.807-23.356 48.821-90.086-26.251-184.981-42.639-279.533-51.127-46.123-4.171-87.486-5.986-117.907-6.281-0.087-89.919 30.828-177.119 87.535-246.903h-0.049zM655.89-72.274c-18.922 95.422-45.705 189.116-80.077 280.122-98.231-35.671-176.493-87.829-236.992-150.046-24.415-24.65-46.083-51.878-64.621-81.205 67.654-50.479 149.834-77.695 234.244-77.575 50.534-0.072 100.604 9.642 147.445 28.606v0.098zM747.792-19.527c76.606 58.892 128.792 143.976 146.562 238.955-16.683 4.171-37.83 8.341-61.088 11.58-51.71 7.446-104.179 7.991-156.032 1.619 29.197-82.375 52.771-166.636 70.558-252.203v0.049zM508.444-199.111c-270.995 0-490.667 219.671-490.667 490.667s219.671 490.667 490.667 490.667c270.995 0 490.667-219.671 490.667-490.667s-219.671-490.667-490.667-490.667z" />
<glyph unicode="&#xe009;" glyph-name="pinterest-line" d="M339.776-64.838c1.178 16.486 3.533 32.924 7.066 49.116 3.091 14.475 12.463 55.445 26.202 114.816l0.344 1.472 18.989 81.843c3.876 16.683 6.869 29.636 8.881 33.954-9.528 22.027-14.277 45.825-13.935 69.822 0 65.602 37.094 116.435 85.18 116.435 17.664 0.294 34.543-7.36 46.221-20.902 11.678-13.493 17.075-31.599 14.818-48.87 0-22.227-4.171-39.155-22.227-99.851-3.484-11.678-5.888-19.823-8.145-28.017-2.502-9.225-4.661-17.566-6.477-25.613-4.71-18.94-0.392-39.106 11.629-54.268 11.839-15.037 30.249-23.382 49.361-22.374 73.207 0 127.573 97.397 127.573 223.155 0 96.661-63.296 160.644-168.397 160.644-53.193 1.977-104.782-18.416-142.244-56.23-38.232-38.609-59.358-90.955-58.635-145.286-1.22-28.986 7.66-57.497 25.122-80.666 8.881-6.869 12.267-18.793 8.587-28.949-2.012-8.243-6.869-27.085-8.636-33.365-1.038-6.257-4.966-11.657-10.598-14.573-5.45-2.843-11.937-2.879-17.419-0.098-56.917 23.503-88.124 87.241-88.124 168.789 0 146.464 122.225 273.988 303.821 273.988 153.824 0 268.934-114.276 268.934-252.203 0-173.303-94.797-299.503-230.123-299.503-39.034-1.132-76.288 16.33-100.39 47.055l-12.267-50.49-0.098-0.344c-7.164-29.44-12.169-49.901-14.131-57.604-5.201-17.419-11.776-34.494-19.627-51.029 202.729-48.261 407.835 70.308 467.183 270.073s-47.75 411.087-243.944 481.343c-196.195 70.256-413.093-25.047-494.043-217.076s2.267-413.845 189.549-505.244v0.049zM512-202.667c-270.995 0-490.667 219.672-490.667 490.667s219.671 490.667 490.667 490.667c270.995 0 490.667-219.672 490.667-490.667s-219.672-490.667-490.667-490.667z" />
<glyph unicode="&#xe00a;" glyph-name="weibo-line" d="M877.441 170.437c0-150.589-202.051-287.74-442.728-287.74-220.784 0.045-413.38 108.933-413.38 272.645 0 87.209 52.631 183.062 144.513 272.69 126.315 122.997 277.831 180.644 350.489 109.649 22.212-21.589 32.248-50.256 32.069-83.222 88.091 25.8 162.801 18.096 199.955-33.683 20.027-27.905 23.729-61.812 14.541-98.855 67.395-27.323 114.54-79.281 114.54-151.484zM679.404 263.155c-17.217 18.365-17.841 41.208-8.831 63.156 9.277 22.754 9.5 36.371 5.352 42.104-11.775 16.483-68.376 16.259-142.462-13.93-7.266-3.067-14.897-5.175-22.703-6.271-15.343-2.060-29.929-0.045-43.845 11.87-18.689 16.080-21.142 38.297-14.362 58.945 9.59 30.010 8.029 48.195 1.65 54.421-8.296 8.063-34.656 8.555-73.996-6.405-47.68-18.141-102.497-54.825-152.274-103.289-76.137-74.309-117.395-149.469-117.395-208.414 0-100.422 146.119-183.063 324.174-183.063 197.145 0 353.522 106.156 353.522 198.157 0 33.056-28.412 59.976-74.621 73.995-17.573 5.062-23.907 7.659-34.21 18.678v0.045zM994.033 335.583c-6.183-23.946-30.526-38.325-54.371-32.115s-38.163 30.655-31.98 54.601c15.593 60.041-0.858 123.91-43.487 168.826s-105.366 64.485-165.834 51.727c-15.687-3.474-32.022 1.791-42.766 13.784s-14.235 28.861-9.141 44.16c5.094 15.299 17.987 26.665 33.753 29.757 90.659 19.060 184.686-10.313 248.582-77.652s88.575-163.071 65.244-253.088v0z" />
<glyph unicode="&#xe00b;" glyph-name="facebook-circle-line" d="M561.067-101.491c205.428 26.139 355.226 207.348 342.259 414.026s-184.241 367.742-391.325 367.999c-207.358 0.154-379.071-161.001-392.055-367.953s137.237-388.306 342.989-414.072v291.358h-98.133v98.133h98.133v81.156c0 65.602 6.869 89.399 19.627 113.393 12.567 23.739 31.989 43.145 55.74 55.691 18.743 10.059 42.050 16.094 82.775 18.694 16.143 1.030 37.045-0.245 62.707-3.925v-93.227h-24.582c-44.994 0-63.59-2.11-74.68-8.047-6.617-3.403-12.004-8.79-15.407-15.407-5.888-11.089-8.047-22.080-8.047-67.123v-81.205h122.667l-24.533-98.133h-98.133v-291.358zM512-202.667c-270.995 0-490.667 219.672-490.667 490.667s219.671 490.667 490.667 490.667c270.995 0 490.667-219.672 490.667-490.667s-219.672-490.667-490.667-490.667z" />
<glyph unicode="&#xe00c;" glyph-name="bblogo" d="M260.16 229.62l14.35-133.020h-211.97v374.19h205.28v-229.68h-123.94v-79.91h52.16l-7.18 68.43h71.3zM143.88 413.37v-30.62h43.54v30.62h-43.54zM187.43 298.53v31.58h-43.54v-31.58h43.54zM478.35 467.44v-339.25h-101.44v57.41h21.050v224.42h-30.62v-313.42h-81.34v370.84h192.35zM566.88 396.62h-33.5v57.42h79.43l-4.79 25.36h82.78l4.79-25.36h82.3v-57.42h-131.59l-34.93-69.38h11.96l29.19 55.51h86.61l-107.66-204.8h-86.61l48.33 91.87h-59.33v57.42l33.020 69.38zM789.38 296.13l-39.24-74.65 31.58-124.89h-54.070l-13.88 55.51-29.19-55.51h-150.72v57.42h98.57l75.12 142.11h81.83zM863.060 173.16h-66.99v270.83h66.99v-270.83zM960.68 478.92v-382.32h-140.68v57.42h59.33v324.9h81.35z" />
<glyph unicode="&#xe00d;" glyph-name="copyright-line" d="M512 714.667c235.52 0 426.667-191.147 426.667-426.667s-191.147-426.667-426.667-426.667-426.667 191.147-426.667 426.667 191.147 426.667 426.667 426.667zM512 629.333c-188.587 0-341.333-152.747-341.333-341.333s152.747-341.333 341.333-341.333 341.333 152.747 341.333 341.333-152.747 341.333-341.333 341.333zM512 501.333c77.653 0 145.621-41.515 182.955-103.595l-73.131-43.904c-22.773 37.498-63.392 62.165-109.772 62.165-70.692 0-128-57.308-128-128 0-70.674 57.278-127.97 127.945-128h0.003c0.025 0 0.054 0 0.084 0 46.348 0 86.939 24.65 109.378 61.556l0.32 0.566 73.173-43.861c-37.932-62.561-105.657-103.724-182.997-103.724-117.797 0-213.291 95.493-213.291 213.291 0 0.060 0 0.121 0 0.181v-0.009c0 117.76 95.573 213.333 213.333 213.333z" />
<glyph unicode="&#xe00e;" glyph-name="creative-commons-nd-line" d="M512 714.667c235.648 0 426.667-191.019 426.667-426.667s-191.019-426.667-426.667-426.667-426.667 191.019-426.667 426.667 191.019 426.667 426.667 426.667zM512 629.333c-188.513 0-341.333-152.82-341.333-341.333s152.82-341.333 341.333-341.333v0c188.513 0 341.333 152.82 341.333 341.333s-152.82 341.333-341.333 341.333v0zM682.667 245.333v-85.333h-341.333v85.333h341.333zM682.667 416v-85.333h-341.333v85.333h341.333z" />
<glyph unicode="&#xe00f;" glyph-name="creative-commons-by-line" d="M512 714.667c235.648 0 426.667-191.019 426.667-426.667s-191.019-426.667-426.667-426.667-426.667 191.019-426.667 426.667 191.019 426.667 426.667 426.667zM512 629.333c-188.513 0-341.333-152.82-341.333-341.333s152.82-341.333 341.333-341.333v0c188.513 0 341.333 152.82 341.333 341.333s-152.82 341.333-341.333 341.333v0zM597.333 373.333c23.564 0 42.667-19.102 42.667-42.667v0-170.667h-64v-170.667h-128v170.667h-64v170.667c0 23.564 19.103 42.667 42.667 42.667h170.667zM512 586.667c47.128 0 85.333-38.205 85.333-85.333s-38.205-85.333-85.333-85.333v0c-47.128 0-85.333 38.205-85.333 85.333s38.205 85.333 85.333 85.333v0z" />
<glyph unicode="&#xe010;" glyph-name="creative-commons-nc-line" d="M512 714.667c235.648 0 426.667-191.019 426.667-426.667 0-102.4-36.096-196.437-96.256-269.995l1.451-1.536-60.331-60.331-1.536 1.451c-72.689-59.92-166.764-96.257-269.327-96.257-0.235 0-0.47 0-0.705 0.001h0.037c-235.648 0-426.667 191.019-426.667 426.667s191.019 426.667 426.667 426.667zM170.667 288c0-0.001 0-0.003 0-0.005 0-188.513 152.82-341.333 341.333-341.333 79.209 0 152.116 26.98 210.033 72.251l-0.753-0.567-101.333 101.376c-6.762-1.519-14.527-2.389-22.496-2.389-0.041 0-0.082 0-0.124 0h-42.66v-85.333h-85.333v85.333h-106.667v85.333h234.667c0.012 0 0.026 0 0.039 0 11.782 0 21.333 9.551 21.333 21.333 0 10.439-7.497 19.126-17.401 20.972l-0.132 0.020-3.84 0.341h-170.667c-58.909 0.002-106.664 47.757-106.664 106.667 0 19.637 5.306 38.034 14.563 53.837l-0.273-0.503-91.989 91.989c-44.672-56.976-71.638-129.693-71.638-208.708 0-0.216 0-0.432 0.001-0.649v0.033zM512 629.333c-78.848 0-151.467-26.752-209.28-71.68l101.333-101.333c6.702 1.492 14.401 2.347 22.298 2.347 0.111 0 0.221 0 0.332-0.001h42.65v85.333h85.333v-85.333h106.667v-85.333h-234.667c-0.012 0-0.026 0-0.039 0-11.782 0-21.333-9.551-21.333-21.333 0-10.439 7.497-19.126 17.401-20.972l0.132-0.020 3.84-0.341h170.667c58.909-0.002 106.664-47.757 106.664-106.667 0-19.637-5.306-38.034-14.563-53.837l0.273 0.503 91.989-91.947c44.705 57.164 71.685 130.071 71.685 209.28 0 188.513-152.82 341.333-341.333 341.333-0.017 0-0.034 0-0.050 0h0.003z" />
<glyph unicode="&#xe011;" glyph-name="search-2-line" d="M469.333 714.667c211.968 0 384-172.032 384-384s-172.032-384-384-384-384 172.032-384 384 172.032 384 384 384zM469.333 32c164.992 0 298.667 133.675 298.667 298.667 0 165.035-133.675 298.667-298.667 298.667-165.035 0-298.667-133.632-298.667-298.667 0-164.992 133.632-298.667 298.667-298.667zM831.36 28.971l120.704-120.661-60.373-60.373-120.661 120.704 60.331 60.331z" />
<glyph unicode="&#xe012;" glyph-name="dashboard-fill" d="M128 245.333h341.333v426.667h-341.333v-426.667zM128-96h341.333v256h-341.333v-256zM554.667-96h341.333v426.667h-341.333v-426.667zM554.667 672v-256h341.333v256h-341.333z" />
<glyph unicode="&#xe014;" glyph-name="signal-tower-fill" d="M260.949-57.045c-106.95 78.363-175.616 203.506-175.616 344.686 0 0.126 0 0.253 0 0.379v-0.019c0 235.648 191.019 426.667 426.667 426.667s426.667-191.019 426.667-426.667c0-0.106 0-0.233 0-0.36 0-141.18-68.666-266.322-174.422-343.851l-1.194-0.835-43.307 74.197c81.569 63.011 133.589 160.847 133.589 270.834 0 188.513-152.82 341.333-341.333 341.333s-341.333-152.82-341.333-341.333c0-109.987 52.021-207.823 132.8-270.248l0.789-0.586-43.307-74.197zM347.733 91.648c-56.24 47.28-91.733 117.669-91.733 196.348 0 141.385 114.615 256 256 256s256-114.615 256-256c0-78.679-35.494-149.068-91.343-196.028l-0.391-0.32-43.947 75.349c31.099 30.92 50.347 73.731 50.347 121.038 0 94.257-76.41 170.667-170.667 170.667s-170.667-76.41-170.667-170.667c0-47.307 19.247-90.118 50.338-121.030l0.008-0.008-43.947-75.349zM469.333 245.333h85.333l42.667-384h-170.667l42.667 384z" />
<glyph unicode="&#xe016;" glyph-name="train-line" d="M733.867-53.333l76.8-64v-21.333h-597.333v21.333l76.8 64h-76.8c-47.128 0-85.333 38.205-85.333 85.333v0 469.333c0 94.257 76.41 170.667 170.667 170.667v0h426.667c94.257 0 170.667-76.41 170.667-170.667v0-469.333c0-47.128-38.205-85.333-85.333-85.333v0h-76.8zM298.667 586.667c0 0 0 0 0 0-47.128 0-85.333-38.205-85.333-85.333v0-469.333h597.333v469.333c0 0 0 0 0 0 0 47.128-38.205 85.333-85.333 85.333h-426.667zM512 74.667c-47.128 0-85.333 38.205-85.333 85.333s38.205 85.333 85.333 85.333v0c47.128 0 85.333-38.205 85.333-85.333s-38.205-85.333-85.333-85.333v0zM256 501.333h512v-170.667h-512v170.667z" />
<glyph unicode="&#xe017;" glyph-name="apps-fill" d="M288 693.333c100.148 0 181.333-81.186 181.333-181.333v0-181.333h-181.333c-100.148 0-181.333 81.186-181.333 181.333s81.186 181.333 181.333 181.333v0zM288 245.333h181.333v-181.333c0-100.148-81.186-181.333-181.333-181.333s-181.333 81.186-181.333 181.333c0 100.148 81.186 181.333 181.333 181.333v0zM736 693.333c100.148 0 181.333-81.186 181.333-181.333s-81.186-181.333-181.333-181.333v0h-181.333v181.333c0 100.148 81.186 181.333 181.333 181.333v0zM554.667 245.333h181.333c100.148 0 181.333-81.186 181.333-181.333s-81.186-181.333-181.333-181.333c-100.148 0-181.333 81.186-181.333 181.333v0 181.333z" />
<glyph unicode="&#xe018;" glyph-name="chat-1-fill" d="M426.667 672h170.667c188.513 0 341.333-152.82 341.333-341.333s-152.82-341.333-341.333-341.333v-149.333c-213.333 85.333-512 213.333-512 490.667 0 188.513 152.82 341.333 341.333 341.333v0z" />
<glyph unicode="&#xe019;" glyph-name="dashboard-2-fill" d="M512 714.667c235.648 0 426.667-191.019 426.667-426.667s-191.019-426.667-426.667-426.667-426.667 191.019-426.667 426.667 191.019 426.667 426.667 426.667zM512 586.667c-164.949 0-298.667-133.717-298.667-298.667 0-79.019 30.72-150.912 80.811-204.331l6.656-6.827 60.331 60.288c-38.571 38.656-62.464 91.989-62.464 150.869 0 117.803 95.531 213.333 213.333 213.333 19.115 0 37.632-2.517 55.253-7.253l66.688 66.645c-37.248 16.64-78.507 25.941-121.941 25.941zM784.725 409.899l-66.603-66.645c4.693-17.621 7.211-36.139 7.211-55.253 0-58.88-23.893-112.213-62.464-150.869l60.331-60.331c54.016 54.059 87.467 128.725 87.467 211.2 0 43.435-9.259 84.693-25.941 121.899zM692.992 529.365l-158.933-158.891c-7.040 1.877-14.421 2.859-22.059 2.859-47.147 0-85.333-38.187-85.333-85.333s38.187-85.333 85.333-85.333 85.333 38.187 85.333 85.333c0 7.637-0.981 15.019-2.859 22.059l158.891 158.976-60.331 60.331z" />
<glyph unicode="&#xe01b;" glyph-name="close-fill" d="M512 348.331l211.2 211.2 60.331-60.331-211.2-211.2 211.2-211.2-60.331-60.331-211.2 211.2-211.2-211.2-60.331 60.331 211.2 211.2-211.2 211.2 60.331 60.331z" />
<glyph unicode="&#xe01c;" glyph-name="disc-fill" d="M554.667 408.747c-12.705 4.638-27.373 7.32-42.667 7.32-70.692 0-128-57.308-128-128s57.308-128 128-128c70.669 0 127.962 57.269 128 127.929v407.129c173.099-54.357 298.667-216.064 298.667-407.125 0-235.648-191.019-426.667-426.667-426.667s-426.667 191.019-426.667 426.667 191.019 426.667 426.667 426.667c14.379 0 28.629-0.725 42.667-2.133v-303.787z" />
<glyph unicode="&#xe01d;" glyph-name="keyboard-box-fill" d="M130.37 629.333c-60.141 0-109.037-49.428-109.037-110.222v-440.889c0-60.794 48.896-110.222 109.037-110.222h763.259c60.141 0 109.037 49.428 109.037 110.222v440.889c0 60.795-48.896 110.222-109.037 110.222h-763.259zM157.63 519.111h54.518c14.993 0 27.259-12.4 27.259-27.555v-55.111c0-15.155-12.267-27.555-27.259-27.555h-54.518c-14.993 0-27.259 12.4-27.259 27.555v55.111c0 15.155 12.267 27.555 27.259 27.555zM130.37 326.222c0 15.156 12.267 27.556 27.259 27.556h54.518c14.993 0 27.259-12.4 27.259-27.556v-55.111c0-15.156-12.267-27.556-27.259-27.556h-54.518c-14.993 0-27.259 12.4-27.259 27.556v55.111zM157.63 188.444h54.518c14.993 0 27.259-12.4 27.259-27.555v-55.111c0-15.156-12.267-27.556-27.259-27.556h-54.518c-14.993 0-27.259 12.4-27.259 27.556v55.111c0 15.155 12.267 27.555 27.259 27.555zM293.926 491.556c0 15.155 12.267 27.555 27.259 27.555h54.519c14.993 0 27.259-12.4 27.259-27.555v-55.111c0-15.155-12.267-27.555-27.259-27.555h-54.519c-14.993 0-27.259 12.4-27.259 27.555v55.111zM321.185 353.778h54.519c14.993 0 27.259-12.4 27.259-27.556v-55.111c0-15.156-12.267-27.556-27.259-27.556h-54.519c-14.993 0-27.259 12.4-27.259 27.556v55.111c0 15.156 12.267 27.556 27.259 27.556zM293.926 160.889c0 15.155 12.267 27.555 27.259 27.555h381.63c14.993 0 27.259-12.4 27.259-27.555v-55.111c0-15.156-12.267-27.556-27.259-27.556h-381.63c-14.993 0-27.259 12.4-27.259 27.556v55.111zM484.741 519.111h54.519c14.993 0 27.259-12.4 27.259-27.555v-55.111c0-15.155-12.267-27.555-27.259-27.555h-54.519c-14.993 0-27.259 12.4-27.259 27.555v55.111c0 15.155 12.267 27.555 27.259 27.555zM457.481 326.222c0 15.156 12.267 27.556 27.259 27.556h54.519c14.993 0 27.259-12.4 27.259-27.556v-55.111c0-15.156-12.267-27.556-27.259-27.556h-54.519c-14.993 0-27.259 12.4-27.259 27.556v55.111zM648.296 519.111h54.519c14.993 0 27.259-12.4 27.259-27.555v-55.111c0-15.155-12.267-27.555-27.259-27.555h-54.519c-14.993 0-27.259 12.4-27.259 27.555v55.111c0 15.155 12.267 27.555 27.259 27.555zM621.037 326.222c0 15.156 12.267 27.556 27.259 27.556h54.519c14.993 0 27.259-12.4 27.259-27.556v-55.111c0-15.156-12.267-27.556-27.259-27.556h-54.519c-14.993 0-27.259 12.4-27.259 27.556v55.111zM811.852 519.111h54.519c14.993 0 27.259-12.4 27.259-27.555v-55.111c0-15.155-12.267-27.555-27.259-27.555h-54.519c-14.993 0-27.259 12.4-27.259 27.555v55.111c0 15.155 12.267 27.555 27.259 27.555zM784.593 326.222c0 15.156 12.267 27.556 27.259 27.556h54.519c14.993 0 27.259-12.4 27.259-27.556v-55.111c0-15.156-12.267-27.556-27.259-27.556h-54.519c-14.993 0-27.259 12.4-27.259 27.556v55.111zM811.852 188.444h54.519c14.993 0 27.259-12.4 27.259-27.555v-55.111c0-15.156-12.267-27.556-27.259-27.556h-54.519c-14.993 0-27.259 12.4-27.259 27.556v55.111c0 15.155 12.267 27.555 27.259 27.555z" />
<glyph unicode="&#xe01e;" glyph-name="moon-clear-fill" d="M419.072 704.512c-22.243-47.133-35.228-102.385-35.228-160.668 0-212.077 171.923-384 384-384 58.284 0 113.534 12.985 163.017 36.219l-2.349-0.991c-42.411-190.976-212.779-333.739-416.512-333.739-235.648 0-426.667 191.019-426.667 426.667 0 203.733 142.763 374.101 333.739 416.512zM774.997 702.251l35.669-8.917v-42.667l-35.669-8.917c-30.609-7.84-54.24-31.471-61.951-61.488l-0.129-0.592-8.917-35.669h-42.667l-8.917 35.669c-7.84 30.609-31.471 54.24-61.488 61.951l-0.592 0.129-35.669 8.917v42.667l35.669 8.917c30.591 7.854 54.204 31.481 61.908 61.488l0.129 0.592 8.96 35.669h42.667l8.917-35.669c7.84-30.609 31.471-54.24 61.488-61.951l0.592-0.129zM988.331 488.917l35.669-8.917v-42.667l-35.669-8.917c-30.609-7.84-54.24-31.471-61.951-61.488l-0.129-0.592-8.917-35.669h-42.667l-8.917 35.669c-7.84 30.609-31.471 54.24-61.488 61.951l-0.592 0.129-35.669 8.917v42.667l35.669 8.917c30.609 7.84 54.24 31.471 61.951 61.488l0.129 0.592 8.917 35.669h42.667l8.917-35.669c7.84-30.609 31.471-54.24 61.488-61.951l0.592-0.129z" />
<glyph unicode="&#xe01f;" glyph-name="side-bar-fill" d="M306.421 778.667c-73.112 0-133.957-17.664-180.572-51.52-20.609-14.229-38.764-32.384-52.994-52.992-33.857-46.613-51.522-107.456-51.522-180.565v-411.179c0-178.603 106.478-285.077 285.087-285.077h366.541v981.333h-366.541zM517.905 261.995l-125.615-125.611c-7.36-7.36-16.683-10.795-26.006-10.795s-18.646 3.435-26.006 10.795c-14.23 14.229-14.23 37.781 0 52.011l99.118 99.605-99.118 99.605c-14.721 14.229-14.721 37.781 0 52.011s37.783 14.229 52.012 0l125.615-125.611c14.23-14.229 14.23-37.781 0-52.011zM746.53 777.133v-978.877c60.354 3.925 111.385 21.094 151.621 50.534 20.609 14.234 38.764 32.384 52.994 52.992 33.857 46.618 51.522 107.456 51.522 180.565v411.181c0 168.789-95.193 273.301-256.137 283.605z" />
<glyph unicode="&#xe020;" glyph-name="mail-line" d="M858.667 714.667c79.529 0 144-64.471 144-144v-586.667c0-79.529-64.471-144-144-144h-693.333c-79.529 0-144 64.471-144 144v586.667c0 79.529 64.471 144 144 144h693.333zM917.333 456.491l-360.185-257.53c-26.918-19.236-63.379-19.236-90.305 0.005l-360.177 257.504v-472.469c0-32.401 26.266-58.667 58.667-58.667h693.333c32.401 0 58.667 26.266 58.667 58.667v472.491zM858.667 629.333h-693.333c-29.764 0-54.35-22.164-58.156-50.888 2.526-1.207 4.966-2.652 7.311-4.328l397.511-284.175 397.511 284.175c2.345 1.676 4.785 3.122 7.294 4.341-3.787 28.711-28.374 50.876-58.138 50.876z" />
<glyph unicode="&#xe021;" glyph-name="tiktok" d="M533.512 777.848c53.608 0.818 106.823 0.393 160.005 0.818 1.768-66.467 28.752-126.291 71.685-170.603l-0.066 0.066c46.207-41.595 106.332-68.562 172.613-73.144l0.917-0.065v-164.81c-62.614 1.571-121.494 16.003-174.578 40.81l2.685-1.113c-25.674 12.338-47.386 25.003-68.017 39.141l1.703-1.113c-0.393-119.419 0.393-238.837-0.819-357.83-3.373-60.642-23.546-115.95-55.9-162.126l0.655 1.014c-54.099-77.431-141.732-128.255-241.383-131.266h-0.459c-4.028-0.196-8.776-0.295-13.558-0.295-56.654 0-109.607 15.774-154.733 43.166l1.31-0.753c-82.131 49.384-138.785 133.884-149.264 232.161l-0.131 1.342c-0.819 20.454-1.212 40.908-0.393 60.937 16.046 156.399 147.168 277.389 306.551 277.389 17.913 0 35.466-1.538 52.527-4.451l-1.834 0.262c0.819-60.511-1.637-121.055-1.637-181.566-13.852 5.007-29.833 7.92-46.502 7.92-61.173 0-113.209-39.075-132.464-93.63l-0.295-0.982c-4.356-13.974-6.877-30.043-6.877-46.668 0-6.742 0.426-13.418 1.212-19.963l-0.065 0.785c10.872-66.958 68.312-117.488 137.573-117.488 1.998 0 3.963 0.033 5.927 0.131h-0.295c47.91 1.44 89.5 27.196 113.012 65.256l0.327 0.589c8.744 12.174 14.736 26.901 16.734 42.904l0.033 0.458c4.093 73.209 2.456 145.992 2.849 219.201 0.393 164.81-0.393 329.227 0.819 493.612l0.131-0.098z" />
<glyph unicode="&#xe022;" glyph-name="arrow-up-line" d="M554.667 466.005v-519.339h-85.333v519.339l-228.864-228.864-60.331 60.331 331.861 331.861 331.861-331.861-60.331-60.331-228.864 228.864z" />
<glyph unicode="&#xe023;" glyph-name="arrow-right-circle-fill" d="M511.097 800c-281.937 0.227-510.718-228.064-511.097-510s227.789-510.841 509.725-511.372c281.936-0.53 510.963 227.514 511.649 509.45 0.435 135.619-53.132 265.833-148.874 361.885s-225.783 150.038-361.402 150.038v0zM662.546 260.461l-201.554-202.378c-16.049-16.162-42.161-16.255-58.323-0.206s-16.255 42.161-0.206 58.323l172.702 172.702-172.702 172.702c-15.981 16.076-15.981 42.040 0 58.117 7.739 7.803 18.274 12.192 29.265 12.192s21.525-4.389 29.264-12.192l201.554-201.554c8.060-7.769 12.614-18.482 12.614-29.677s-4.553-21.908-12.614-29.677v1.649z" />
<glyph unicode="&#xe024;" glyph-name="add-circle-fill" horiz-adv-x="1023" d="M509.906-219.813c-281.621 0-509.906 228.285-509.906 509.907s228.285 509.906 509.906 509.906c281.621 0 509.907-228.285 509.907-509.906s-228.285-509.907-509.907-509.907zM458.916 341.084h-203.963v-101.981h203.963v-203.963h101.981v203.963h203.963v101.981h-203.963v203.963h-101.981v-203.963z" />
<glyph unicode="&#xe025;" glyph-name="artboard-fill" d="M366.336 74.667h-238.336v85.333h768v-85.333h-238.336l138.368-138.368-60.331-60.331-181.035 181.035v-110.336h-85.333v110.336l-181.035-181.035-60.331 60.331 138.368 138.368zM213.333 672h597.333c23.564 0 42.667-19.103 42.667-42.667v-426.667h-682.667v426.667c0 23.564 19.102 42.667 42.667 42.667v0z" />
<glyph unicode="&#xe026;" glyph-name="checkbox-multiple-blank-fill" d="M298.667 501.333v170.667c0 23.564 19.102 42.667 42.667 42.667h554.667c23.564 0 42.667-19.103 42.667-42.667v0-554.667c0-23.564-19.103-42.667-42.667-42.667h-170.667v-170.368c0-23.723-19.157-42.965-42.965-42.965h-554.069c-0.013 0-0.028 0-0.043 0-23.706 0-42.923 19.217-42.923 42.923 0 0.015 0 0.030 0 0.045v-0.002l0.128 554.069c0 23.723 19.157 42.965 42.965 42.965h170.24zM384 501.333h298.368c23.723 0 42.965-19.157 42.965-42.965v-298.368h128v469.333h-469.333v-128z" />
<glyph unicode="&#xe027;" glyph-name="folder-5-fill" d="M572.331 586.667h281.003c23.564 0 42.667-19.103 42.667-42.667v0-42.667h-768v128c0 23.564 19.103 42.667 42.667 42.667v0h316.331l85.333-85.333zM131.712 416h760.576c0.006 0 0.012 0 0.019 0 23.564 0 42.667-19.103 42.667-42.667 0-1.247-0.053-2.481-0.158-3.7l0.011 0.159-35.584-426.667c-1.886-21.982-20.188-39.113-42.495-39.125h-689.495c-22.308 0.013-40.61 17.143-42.485 38.967l-0.011 0.159-35.584 426.667c-0.094 1.061-0.147 2.295-0.147 3.541 0 23.564 19.103 42.667 42.667 42.667 0.007 0 0.014 0 0.020 0h-0.001z" />
<glyph unicode="&#xe028;" glyph-name="contacts-fill" d="M85.333-138.667c0 188.513 152.82 341.333 341.333 341.333s341.333-152.82 341.333-341.333v0h-682.667zM426.667 245.333c-141.44 0-256 114.56-256 256s114.56 256 256 256 256-114.56 256-256-114.56-256-256-256zM853.333 74.667h170.667v-85.333h-170.667v85.333zM725.333 288h298.667v-85.333h-298.667v85.333zM810.667 501.333h213.333v-85.333h-213.333v85.333z" />
<glyph unicode="&#xe029;" glyph-name="clapperboard-fill" d="M767.915 501.333l98.56 170.667h29.867c23.381 0 42.325-18.987 42.325-42.368v-683.264c-0.168-23.317-19.012-42.176-42.307-42.368h-768.701c-23.381 0.024-42.325 18.984-42.325 42.368v0 683.264c0.168 23.317 19.012 42.176 42.307 42.368h128.274l-98.56-170.667h98.56l98.56 170.667h157.44l-98.56-170.667h98.56l98.56 170.667h157.44l-98.56-170.667h98.56z" />
<glyph unicode="&#xe02a;" glyph-name="group-fill" d="M85.333-138.667c0 188.513 152.82 341.333 341.333 341.333s341.333-152.82 341.333-341.333v0h-682.667zM426.667 245.333c-141.44 0-256 114.56-256 256s114.56 256 256 256 256-114.56 256-256-114.56-256-256-256zM740.821 150.059c132.427-34.865 230.154-149.167 239.731-287.727l0.055-0.999h-127.275c0 111.36-42.667 212.736-112.512 288.725zM654.507 247.168c69.79 62.616 113.494 153.094 113.494 253.779 0 0.136 0 0.272 0 0.407v-0.021c0 0.157 0 0.343 0 0.529 0 60.978-16.062 118.204-44.186 167.679l0.879-1.68c98.387-20.29 171.307-106.206 171.307-209.153 0-0.015 0-0.030 0-0.044v0.003c0-0.024 0-0.052 0-0.081 0-117.797-95.493-213.291-213.291-213.291-9.945 0-19.731 0.681-29.314 1.998l1.112-0.125z" />
<glyph unicode="&#xe02b;" glyph-name="pencil-ruler-2-fill" d="M240.469 257.835l77.995-78.037 60.416 60.416-78.080 77.952 60.331 60.331 78.037-77.995 60.331 60.331-77.952 78.037 60.331 60.331 77.909-78.080 60.373 60.373-78.037 77.995 120.704 120.661c7.721 7.718 18.386 12.492 30.165 12.492s22.445-4.774 30.165-12.492l180.992-180.992c7.718-7.721 12.492-18.386 12.492-30.165s-4.774-22.445-12.492-30.165l-543.018-543.019c-7.721-7.718-18.386-12.492-30.165-12.492s-22.445 4.774-30.165 12.492l-180.992 180.992c-7.718 7.721-12.492 18.386-12.492 30.165s4.774 22.445 12.492 30.165l120.661 120.704zM602.496 16.512l181.035 180.992 112.469-112.469v-181.035h-180.992l-112.512 112.512zM240.469 378.539l-120.704 120.661c-7.731 7.723-12.514 18.396-12.514 30.187s4.782 22.464 12.513 30.186l120.704 120.662c7.721 7.718 18.386 12.492 30.165 12.492s22.445-4.774 30.165-12.492l120.747-120.661-181.077-181.035z" />
<glyph unicode="&#xe02c;" glyph-name="gift-2-fill" d="M853.333 245.333v-298.667c0-23.564-19.102-42.667-42.667-42.667h-597.333c-23.564 0-42.667 19.103-42.667 42.667v298.667h682.667zM618.667 714.667c0.015 0 0.033 0 0.051 0 82.475 0 149.333-66.859 149.333-149.333 0-23.272-5.323-45.3-14.818-64.934l0.389 0.891 142.379 0.043c23.564 0 42.667-19.102 42.667-42.667v0-128c0-23.564-19.103-42.667-42.667-42.667v0h-768c-23.564 0-42.667 19.103-42.667 42.667v0 128c0 23.564 19.103 42.667 42.667 42.667l142.379-0.043c-9.15 18.781-14.499 40.86-14.499 64.189 0 82.475 66.859 149.333 149.333 149.333 41.855 0 79.688-17.219 106.802-44.96l0.028-0.028c26.996 27.677 64.658 44.843 106.328 44.843 0.104 0 0.208 0 0.312 0h-0.016zM405.333 629.333c-35.332-0.018-63.968-28.665-63.968-64 0-33.171 25.236-60.449 57.557-63.68l0.267-0.022 6.144-0.299h64v64c-0.002 33.181-25.254 60.464-57.59 63.68l-0.266 0.021-6.144 0.299zM618.667 629.333l-6.144-0.299c-30.51-3.009-54.568-27.052-57.579-57.291l-0.021-0.266-0.256-6.144v-64h64l6.144 0.299c32.588 3.253 57.824 30.53 57.824 63.701s-25.236 60.449-57.557 63.68l-0.267 0.022-6.144 0.299z" />
<glyph unicode="&#xe02d;" glyph-name="pantone-fill" d="M170.667-7.339l-57.6 23.253c-15.769 6.503-26.665 21.755-26.665 39.553 0 5.766 1.144 11.265 3.217 16.283l-0.104-0.283 81.152 200.875v-279.68zM378.027-96h-79.36c-23.564 0-42.667 19.103-42.667 42.667v259.328l122.027-301.995zM256.939 545.365l395.605 159.829c4.724 1.96 10.21 3.099 15.963 3.099 17.792 0 33.040-10.89 39.443-26.367l0.104-0.283 239.787-593.408c1.966-4.73 3.107-10.224 3.107-15.985 0-17.811-10.914-33.073-26.418-39.464l-0.284-0.104-395.605-159.829c-4.73-1.966-10.224-3.107-15.985-3.107-17.811 0-33.073 10.914-39.464 26.418l-0.104 0.284-239.701 593.365c-1.956 4.72-3.093 10.201-3.093 15.948 0 17.805 10.907 33.064 26.404 39.458l0.284 0.104zM384 416c0.019 0 0.042 0 0.065 0 23.564 0 42.667 19.103 42.667 42.667s-19.103 42.667-42.667 42.667c-0.023 0-0.046 0-0.069 0h0.004c-23.536-0.037-42.601-19.125-42.601-42.667s19.065-42.629 42.598-42.667h0.004z" />
<glyph unicode="&#xe02e;" glyph-name="price-tag-3-fill" d="M465.067 710.4l422.357-60.373 60.331-422.4-392.192-392.192c-7.721-7.718-18.386-12.492-30.165-12.492s-22.445 4.774-30.165 12.492l-422.4 422.4c-7.718 7.721-12.492 18.386-12.492 30.165s4.774 22.445 12.492 30.165l392.235 392.235zM585.728 348.331c15.442-15.436 36.771-24.984 60.331-24.984 47.13 0 85.336 38.206 85.336 85.336 0 23.57-9.556 44.908-25.005 60.352v0c-15.442 15.436-36.771 24.984-60.331 24.984-47.13 0-85.336-38.206-85.336-85.336 0-23.57 9.556-44.908 25.005-60.352v0z" />
<glyph unicode="&#xe02f;" glyph-name="tools-fill" d="M227.413 660.437c14.936 5.5 32.185 8.682 50.177 8.682 82.475 0 149.333-66.859 149.333-149.333 0-18.015-3.19-35.286-9.036-51.277l0.332 1.037 462.72-462.72-90.539-90.496-462.72 462.677c-14.936-5.5-32.185-8.682-50.177-8.682-82.475 0-149.333 66.859-149.333 149.333 0 18.015 3.19 35.286 9.036 51.277l-0.332-1.037 95.403-95.445c11.654-12.054 27.97-19.538 46.034-19.538 35.346 0 64 28.654 64 64 0 18.064-7.484 34.38-19.52 46.017l-0.018 0.017-95.403 95.531zM669.739 580.053l135.765 75.435 60.331-60.331-75.435-135.765-75.435-15.104-90.453-90.496-60.373 60.331 90.496 90.496 15.104 75.435zM368.043 248.192l90.496-90.539-211.2-211.2c-11.56-11.455-27.474-18.533-45.042-18.533-35.346 0-64 28.654-64 64 0 15.421 5.454 29.568 14.538 40.618l-0.089-0.111 4.139 4.565 211.2 211.2z" />
<glyph unicode="&#xe030;" glyph-name="rss-fill" d="M128 672c424.149 0 768-343.851 768-768h-128c0 353.451-286.549 640-640 640v128zM128 373.333c259.2 0 469.333-210.133 469.333-469.333h-128c0 188.513-152.82 341.333-341.333 341.333v0 128zM128 74.667c94.257 0 170.667-76.41 170.667-170.667v0h-170.667v170.667z" />
<glyph unicode="&#xe031;" glyph-name="algolia" d="M134.827 800c-0.051 0-0.111 0-0.171 0-74.308 0-134.559-60.19-134.656-134.476v-754.782c0.073-74.416 60.404-134.717 134.825-134.741h754.349c74.539 0 134.827 60.587 134.827 134.827v754.347c0 74.539-60.587 134.827-134.827 134.827h-754.347zM470.613 650.923h103.637c0.013 0 0.028 0 0.043 0 24.507 0 44.373-19.867 44.373-44.373 0-0.015 0-0.030 0-0.045v0.002-35.072c0.002-0.054 0.003-0.116 0.003-0.18 0-3.299-2.674-5.973-5.973-5.973-0.516 0-1.017 0.065-1.495 0.189l0.041-0.009c-26.13 7.471-56.144 11.77-87.165 11.776h-0.003c-0.126 0-0.276 0-0.426 0-31.969 0-62.853-4.629-92.012-13.252l2.283 0.579c-4.053-0.896-7.765 1.92-7.765 5.973v35.968c0 0 0 0 0 0 0 24.462 19.87 44.301 44.409 44.373h0.007l0.043 0.043zM285.013 556.203c0.148 0.002 0.323 0.003 0.499 0.003 12.315 0 23.459-4.993 31.499-13.056l17.667-17.752c2.475-2.773 2.176-7.125-0.939-8.96-14.882-10.761-27.993-21.976-40.129-34.156l-0.020-0.020c-11.973-12.057-23.073-25.037-33.16-38.8l-0.675-0.966c-2.475-2.773-6.528-3.413-9.344-0.683l-17.408 17.451c-8.069 8.033-13.060 19.136-13.060 31.403s4.991 23.37 13.060 31.402l21.163 21.078c7.898 7.9 18.777 12.842 30.816 13.013h0.032v0.043zM523.819 541.269c0.165 0 0.36 0.001 0.555 0.001 159.624 0 289.024-129.4 289.024-289.024 0-0.060 0-0.12 0-0.18v0.009c-0.024-159.841-129.606-289.408-289.451-289.408-0.045 0-0.090 0-0.135 0h0.007c-159.915 0-289.664 129.195-289.664 289.152 0.049 159.87 129.66 289.451 289.536 289.451 0.060 0 0.12 0 0.18 0h-0.052zM523.819 455.595c0 0 0 0 0 0-112.602 0-203.904-91.197-204.074-203.76v-0.016c0.194-112.56 91.487-203.733 204.074-203.733 0 0 0 0 0 0v0c0.089 0 0.194 0 0.299 0 112.536 0 203.77 91.204 203.819 203.729v0.005c-0.146 112.574-91.438 203.776-204.032 203.776-0.030 0-0.060 0-0.090 0h0.005zM530.005 419.84c59.942-2.264 111.609-35.493 139.557-84.006l0.433-0.815c1.536-3.115 0.64-6.827-2.432-8.363l-135.083-69.888c-3.968-2.219-8.747 0.981-8.747 5.333v151.765h0.085c0 3.413 3.072 5.931 6.187 5.931v0.043z" />
<glyph unicode="&#xe032;" glyph-name="calendar-todo-fill" d="M725.333 672h170.667c23.564 0 42.667-19.103 42.667-42.667v0-682.667c0-23.564-19.103-42.667-42.667-42.667v0h-768c-23.564 0-42.667 19.103-42.667 42.667v0 682.667c0 23.564 19.103 42.667 42.667 42.667v0h170.667v85.333h85.333v-85.333h256v85.333h85.333v-85.333zM170.667 416v-426.667h682.667v426.667h-682.667zM256 330.667h85.333v-85.333h-85.333v85.333zM256 160h85.333v-85.333h-85.333v85.333zM426.667 330.667h341.333v-85.333h-341.333v85.333zM426.667 160h213.333v-85.333h-213.333v85.333z" />
<glyph unicode="&#xe033;" glyph-name="refresh-line" d="M233.088 610.859c74.116 64.494 171.626 103.808 278.319 103.808 0.208 0 0.417 0 0.625 0h-0.032c235.648 0 426.667-191.019 426.667-426.667 0-91.136-28.587-175.616-77.227-244.907l-136.107 244.907h128c0 0.008 0 0.018 0 0.028 0 188.513-152.82 341.333-341.333 341.333-91.802 0-175.14-36.241-236.486-95.197l0.113 0.108-42.539 76.587zM790.912-34.859c-74.116-64.494-171.626-103.808-278.319-103.808-0.208 0-0.417 0-0.625 0h0.032c-235.648 0-426.667 191.019-426.667 426.667 0 91.136 28.587 175.616 77.227 244.907l136.107-244.907h-128c0-0.008 0-0.018 0-0.028 0-188.513 152.82-341.333 341.333-341.333 91.802 0 175.14 36.241 236.486 95.197l-0.113-0.108 42.539-76.587z" />
<glyph unicode="&#xe034;" glyph-name="panben" d="M716.8 723.2c127.246 0 230.4-103.154 230.4-230.4v0-409.6c0-127.246-103.154-230.4-230.4-230.4h-409.6c-127.246 0-230.4 103.154-230.4 230.4v0 409.6c0 127.246 103.154 230.4 230.4 230.4h409.6M716.8 800h-409.6c-169.662 0-307.2-137.538-307.2-307.2v0-409.6c0-169.662 137.538-307.2 307.2-307.2v0h409.6c169.662 0 307.2 137.538 307.2 307.2v0 409.6c0 169.662-137.538 307.2-307.2 307.2v0zM319.744 490.24l-19.2-22.272h202.752c0-23.808 0-45.824-1.792-66.304h34.56v-39.936h-37.632c0-9.472-2.304-21.248-4.864-35.584h23.296v-32.512h-30.464l-3.072-10.496 17.152-13.056c-26.19-13.491-57.91-26.989-90.64-38.322l-5.36-1.614 118.784 4.352c20.736 10.752 46.592 25.6 76.8 41.728l44.8-29.44c-63.87-36.937-137.735-68.369-215.524-90.474l-6.94-1.686q102.4 4.096 220.672 12.288c-17.152 13.056-30.208 22.528-39.424 28.416l44.288 28.16c51.614-31.223 96.188-63.492 137.913-99.009l-1.465 1.217-51.2-34.304c-11.52 11.008-25.6 24.064-44.288 39.424l-146.688-8.704v-68.096c0-34.56-20.224-51.2-60.928-51.2h-54.016l-11.008 51.2c14.714-1.782 31.951-2.893 49.412-3.070l0.252-0.002c0.721-0.118 1.552-0.185 2.399-0.185 8.624 0 15.616 6.992 15.616 15.616 0 0.606-0.035 1.205-0.102 1.793l0.007-0.072v51.2c-62.464-3.328-128-5.888-200.96-7.936l-13.568 51.2c17.152-1.28 34.304-1.792 51.2-1.792 49.428 11.008 92.188 24.742 133.185 41.855l-5.185-1.919-131.584-5.12-9.728 45.824c2.344-0.134 5.086-0.211 7.846-0.211 14.255 0 28.034 2.041 41.059 5.845l-1.033-0.259c30.926 11.968 55.799 23.329 79.949 35.888l-4.429-2.096 3.84 13.056h-174.848c4.864 30.208 8.192 52.992 10.24 68.096h-37.376v39.936h42.496c2.304 20.48 4.096 35.84 4.864 46.080l-19.712-17.152-33.28 39.168c35.38 27.798 64.454 61.856 85.924 100.703l0.86 1.697 52.736-11.776-15.36-27.136h177.664v-43.008zM427.776 70.4c-48.16-26.178-103.99-48.113-162.654-62.925l-5.026-1.075-23.296 49.152c59.503 11.706 112.379 30.136 161.53 54.88l-3.578-1.632zM321.536 367.36l-6.656-41.216h87.040c-17.284 7.949-37.901 15.301-59.23 20.897l-2.722 0.607 12.8 19.712zM363.264 435.968h-33.024l-4.352-40.96h76.8c-14.978 7.627-32.712 14.76-51.111 20.365l-2.393 0.627zM407.552 326.144h35.584l6.912 41.216h-86.784c23.328-6.736 42.539-13.708 61.177-21.756l-3.321 1.276zM452.352 395.008l1.792 40.96h-83.456c21.717-6.584 40.209-14.061 57.865-22.955l-2.057 0.939-12.288-18.944zM571.648 428.032q-9.216-11.264-27.648-30.72l-33.792 40.704c34.77 38.109 62.654 83.202 81.242 132.835l0.934 2.845 54.272-12.288-19.2-43.008h157.952v-51.2h-34.304c-10.006-41.175-27.728-77.21-51.688-108.175l0.488 0.655c28.186-16.989 60.725-31.836 94.982-42.853l3.322-0.923-28.928-51.2c-41.329 14.97-77.099 33.811-109.752 56.784l1.464-0.976c-31.33-24.187-68.568-42.443-109.087-52.321l-2.017-0.415-28.928 45.568c37.676 8.133 70.907 23.069 99.919 43.576l-0.847-0.568c-19.838 20.172-36.12 43.916-47.784 70.167l-0.6 1.513zM614.4 111.104c64.936-15.142 120.806-33.509 174.442-56.132l-7.018 2.628-32-51.2c-47.656 22.145-103.815 41.73-162.125 55.8l-6.323 1.288zM605.184 469.504c10.659-30.576 28.269-56.434 51.015-76.638l0.185-0.162c17.668 21.823 31.864 47.335 41.223 75.074l0.505 1.726z" />
<glyph unicode="&#xe035;" glyph-name="shield-user-fill" d="M161.408 679.424l350.592 77.909 350.592-77.909c19.253-4.39 33.404-21.363 33.408-41.642v0-426.112c-0.007-88.456-44.876-166.432-113.094-212.413l-0.911-0.579-269.995-180.011-269.995 180.011c-69.118 46.553-113.983 124.509-114.005 212.946v426.158c0.004 20.28 14.155 37.253 33.122 41.588l0.286 0.055zM512 330.667c0.031 0 0.067 0 0.103 0 58.91 0 106.667 47.756 106.667 106.667s-47.756 106.667-106.667 106.667c-0.036 0-0.073 0-0.109 0h0.006c-58.866-0.059-106.563-47.793-106.563-106.667s47.697-106.608 106.558-106.667h0.006zM321.152 117.333h381.696c-10.941 96.615-92.208 170.999-190.848 170.999s-179.907-74.384-190.767-170.12l-0.081-0.879z" />
<glyph unicode="&#xe036;" glyph-name="creative-commons-fill" d="M512 714.667c235.648 0 426.667-191.019 426.667-426.667s-191.019-426.667-426.667-426.667-426.667 191.019-426.667 426.667 191.019 426.667 426.667 426.667zM384 458.667c-94.208 0-170.667-76.459-170.667-170.667 0.062-94.233 76.468-170.6 170.709-170.6 43.812 0 83.769 16.505 113.994 43.636l-0.159-0.14 6.784 6.443-60.331 60.331c-15.443-15.446-36.778-24.999-60.345-24.999-47.128 0-85.333 38.205-85.333 85.333s38.205 85.333 85.333 85.333c21.020 0 40.265-7.6 55.136-20.202l-0.124 0.103 5.376-4.949 60.331 60.331c-30.813 30.918-73.436 50.048-120.528 50.048-0.062 0-0.124 0-0.185 0h0.010zM682.667 458.667c-94.208 0-170.667-76.459-170.667-170.667 0.062-94.233 76.468-170.6 170.709-170.6 43.812 0 83.769 16.505 113.994 43.636l-0.159-0.14 6.784 6.443-60.331 60.331c-15.443-15.446-36.778-24.999-60.345-24.999-47.128 0-85.333 38.205-85.333 85.333s38.205 85.333 85.333 85.333c21.020 0 40.265-7.6 55.136-20.202l-0.124 0.103 5.376-4.949 60.331 60.331c-30.813 30.918-73.436 50.048-120.528 50.048-0.062 0-0.124 0-0.185 0h0.010z" />
<glyph unicode="&#xe037;" glyph-name="external-link-fill" d="M426.667 544v-85.333h-213.333v-469.333h469.333v213.333h85.333v-256c0-23.564-19.103-42.667-42.667-42.667v0h-554.667c-23.564 0-42.667 19.103-42.667 42.667v554.667c0 23.564 19.103 42.667 42.667 42.667v0h256zM896 672v-384l-161.877 161.835-255.957-256-60.331 60.331 255.957 256-161.792 161.835h384z" />
<glyph unicode="&#xe038;" glyph-name="link" d="M783.531 137.131l-60.331 60.416 60.331 60.331c38.998 38.67 63.141 92.267 63.141 151.503 0 117.821-95.513 213.333-213.333 213.333-59.236 0-112.833-24.143-151.488-63.126l-60.346-60.388-60.373 60.331 60.416 60.331c54.051 54.051 128.721 87.482 211.2 87.482 164.957 0 298.682-133.724 298.682-298.682 0-82.479-33.431-157.149-87.482-211.2l-60.373-60.331zM662.869 16.469l-60.373-60.331c-54.051-54.051-128.721-87.482-211.2-87.482-164.957 0-298.682 133.724-298.682 298.682 0 82.479 33.431 157.149 87.482 211.2v0l60.373 60.331 60.331-60.416-60.331-60.331c-38.998-38.67-63.141-92.267-63.141-151.503 0-117.821 95.513-213.333 213.333-213.333 59.236 0 112.833 24.143 151.488 63.126l60.346 60.346 60.373-60.331zM632.661 469.035l60.373-60.373-301.696-301.653-60.373 60.331 301.696 301.653z" />
<glyph unicode="&#xe039;" glyph-name="restart-line" d="M835.516 90.163l154.351 225.894h-109.158c-14.541 221.047-198.11 396.151-422.844 396.151-234.291 0-423.731-189.918-423.731-424.277 0-234.155 189.918-424.141 424.209-424.141 105.062 0 200.977 38.434 275.115 101.786l-56.73 73.045c-58.368-51.063-134.69-82.398-218.385-82.398-183.296 0-331.844 148.617-331.844 331.708 0 183.364 148.617 331.913 331.844 331.913 173.739 0 315.665-133.734 329.933-303.787h-107.11l154.351-225.894z" />
<glyph unicode="&#xe03a;" glyph-name="arrow-left-line" d="M333.995 330.667h519.339v-85.333h-519.339l228.864-228.864-60.331-60.331-331.861 331.861 331.861 331.861 60.331-60.331z" />
<glyph unicode="&#xe03b;" glyph-name="arrow-right-line" d="M690.005 330.667l-228.864 228.864 60.331 60.331 331.861-331.861-331.861-331.861-60.331 60.331 228.864 228.864h-519.339v85.333z" />
<glyph unicode="&#xe03c;" glyph-name="youxiangshuangjiantou" d="M313.301 529.365l211.2-211.2c7.718-7.721 12.492-18.386 12.492-30.165s-4.774-22.445-12.492-30.165l-211.2-211.2c-7.665-7.408-18.118-11.974-29.638-11.974-23.564 0-42.667 19.103-42.667 42.667 0 11.52 4.565 21.973 11.985 29.65l181.023 181.023-181.035 181.035c-8.038 7.77-13.029 18.648-13.029 30.693 0 23.564 19.103 42.667 42.667 42.667 12.044 0 22.923-4.991 30.681-13.017l0.012-0.012zM569.301 529.365l211.2-211.2c7.718-7.721 12.492-18.386 12.492-30.165s-4.774-22.445-12.492-30.165l-211.2-211.2c-7.665-7.408-18.118-11.974-29.638-11.974-23.564 0-42.667 19.103-42.667 42.667 0 11.52 4.565 21.973 11.985 29.65l181.023 181.023-181.035 181.035c-7.408 7.665-11.974 18.118-11.974 29.638 0 23.564 19.103 42.667 42.667 42.667 11.52 0 21.973-4.565 29.65-11.985l-0.012 0.012z" />
<glyph unicode="&#xe03d;" glyph-name="file-word-fill" d="M682.667 714.667l213.333-213.333v-597.675c-0.024-23.381-18.984-42.325-42.368-42.325h-683.264c-23.317 0.168-42.176 19.012-42.368 42.307v768.701c0 23.381 18.987 42.325 42.368 42.325h512.299zM597.333 458.667v-212.864l-85.333 84.864-84.907-85.333-0.427 213.333h-85.333v-341.333h85.333l85.333 85.333 85.333-85.333h85.333v341.333h-85.333z" />
<glyph unicode="&#xe03e;" glyph-name="wechat-2-fill" d="M232.832 24.107c-89.557 64.341-147.499 161.493-147.499 267.819 0 195.627 190.933 354.475 426.667 354.475s426.667-158.848 426.667-354.475c0-195.584-190.933-354.432-426.667-354.432-0.861-0.006-1.88-0.009-2.9-0.009-48.726 0-95.773 7.19-140.137 20.567l3.432-0.889c-3.925 1.28-9.216 1.28-13.141 1.28-7.893 0-15.787-2.56-22.4-6.528l-93.483-53.803c-2.259-1.397-4.94-2.342-7.813-2.639l-0.080-0.007c-7.963 0.048-14.411 6.466-14.507 14.412v0.009c0 3.968 1.28 6.571 2.645 10.539 1.28 1.28 13.141 44.629 19.755 70.869 0 2.645 1.28 6.571 1.28 9.216 0 10.496-3.925 18.347-11.819 23.595zM369.792 351.531c30.592 0 54.827 24.235 54.827 54.827 0 30.635-24.235 54.869-54.827 54.869-30.635 0-54.827-24.235-54.827-54.869 0-30.592 24.192-54.827 54.827-54.827zM654.208 351.531c30.635 0 54.827 24.235 54.827 54.827 0 30.635-24.192 54.869-54.827 54.869-30.592 0-54.827-24.235-54.827-54.869 0-30.592 24.235-54.827 54.827-54.827z" />
<glyph unicode="&#xe03f;" glyph-name="fire-fill" d="M512-181.333c-176.719 0.016-319.973 143.279-319.973 320 0 91.807 38.661 174.584 100.591 232.938l0.161 0.15c57.259 53.888 197.888 150.912 176.555 364.245 256-170.667 384-341.333 128-597.333 42.667 0 106.667 0 213.333 105.387 11.52-32.981 21.333-68.437 21.333-105.387 0-176.731-143.269-320-320-320v0z" />
<glyph unicode="&#xe040;" glyph-name="map-pin-fill" d="M783.531 59.136l-271.531-271.531-271.531 271.531c-69.489 69.49-112.469 165.49-112.469 271.527 0 212.077 171.923 384 384 384s384-171.923 384-384c0-106.038-42.98-202.037-112.47-271.528v0zM512 160c0.039 0 0.085 0 0.131 0 94.257 0 170.667 76.41 170.667 170.667s-76.41 170.667-170.667 170.667c-0.046 0-0.092 0-0.138 0h0.007c-94.201-0.074-170.536-76.456-170.536-170.667s76.336-170.592 170.529-170.667h0.007zM512 245.333c-47.128 0-85.333 38.205-85.333 85.333s38.205 85.333 85.333 85.333v0c47.128 0 85.333-38.205 85.333-85.333s-38.205-85.333-85.333-85.333v0z" />
<glyph unicode="&#xe041;" glyph-name="time-fill" d="M512-138.667c-235.648 0-426.667 191.019-426.667 426.667s191.019 426.667 426.667 426.667 426.667-191.019 426.667-426.667-191.019-426.667-426.667-426.667zM554.667 288v213.333h-85.333v-298.667h256v85.333h-170.667z" />
<glyph unicode="&#xe042;" glyph-name="timer-fill" d="M751.701 545.365l61.995 61.995 60.331-60.331-61.995-61.995c52.327-65.061 83.987-148.675 83.987-239.683 0-212.077-171.923-384-384-384s-384 171.923-384 384c0 212.077 171.923 384 384 384 91.009 0 174.622-31.66 240.429-84.567l-0.746 0.58zM469.333 458.667v-256h85.333v256h-85.333zM341.333 757.333h341.333v-85.333h-341.333v85.333z" />
<glyph unicode="&#xe043;" glyph-name="menu-fill" d="M128 629.333h768v-85.333h-768v85.333zM128 330.667h768v-85.333h-768v85.333zM128 32h768v-85.333h-768v85.333z" />
<glyph unicode="&#xe044;" glyph-name="map-2-line" d="M85.333 586.667l298.667 128 256-128 268.928 115.243c2.478 1.091 5.368 1.726 8.405 1.726 11.782 0 21.333-9.551 21.333-21.333 0-0.007 0-0.013 0-0.020v0.001-692.949l-298.667-128-256 128-268.928-115.243c-2.478-1.091-5.368-1.726-8.405-1.726-11.782 0-21.333 9.551-21.333 21.333 0 0.007 0 0.013 0 0.020v-0.001 692.949zM682.667-27.52l170.667 73.131v539.648l-170.667-73.131v-539.648zM597.333-21.931v534.528l-170.667 85.333v-534.528l170.667-85.333zM341.333 63.872v539.648l-170.667-73.131v-539.648l170.667 73.131z" />
<glyph unicode="&#xe045;" glyph-name="jingxiao" d="M443.307 628.693c20.143-3.67 35.214-21.081 35.214-42.011 0-2.629-0.238-5.203-0.693-7.701l0.039 0.261-21.248-120.576h169.301l23.893 135.381c3.649 20.171 21.075 35.271 42.027 35.271 23.568 0 42.674-19.106 42.674-42.674 0-2.616-0.235-5.177-0.686-7.663l0.039 0.26-21.248-120.576h98.048c23.564 0 42.667-19.103 42.667-42.667s-19.103-42.667-42.667-42.667h-113.109l-30.080-170.667h100.523c23.564 0 42.667-19.103 42.667-42.667s-19.103-42.667-42.667-42.667h-115.584l-22.272-126.336c-3.649-20.171-21.075-35.271-42.027-35.271-23.568 0-42.674 19.106-42.674 42.674 0 2.616 0.235 5.177 0.686 7.663l-0.039-0.26 19.669 111.531h-169.344l-22.272-126.336c-3.649-20.171-21.075-35.271-42.027-35.271-23.568 0-42.674 19.106-42.674 42.674 0 2.616 0.235 5.177 0.686 7.663l-0.039-0.26 19.669 111.531h-96.427c-23.564 0-42.667 19.103-42.667 42.667s19.103 42.667 42.667 42.667h111.445l30.123 170.667h-98.901c-23.564 0-42.667 19.103-42.667 42.667s19.103 42.667 42.667 42.667h113.92l23.893 135.381c3.633 20.187 21.064 35.304 42.027 35.304 2.639 0 5.222-0.24 7.728-0.698l-0.261 0.040zM580.736 202.667l30.123 170.667h-169.344l-30.080-170.667h169.301z" />
<glyph unicode="&#xe046;" glyph-name="weibo-fill" d="M747.733 314.539c53.888-16.725 113.877-57.003 113.877-128.171 0-117.888-169.813-266.197-425.131-266.197-194.773 0-393.813 94.421-393.813 249.685 0 81.152 51.371 175.019 139.819 263.552 118.315 118.187 256.171 172.075 308.011 120.149 22.912-22.912 25.088-62.464 10.411-109.739-7.595-23.765 22.4-10.667 22.4-10.667 95.573 40.021 179.029 42.411 209.451-1.152 16.213-23.168 14.635-55.723-0.341-93.44-6.955-17.365 2.048-20.096 15.36-24.021zM437.035-24.192c155.349 15.445 273.109 110.592 263.125 212.608-10.112 102.016-144.299 172.288-299.648 156.885-155.307-15.36-273.195-110.507-263.125-212.48 10.112-102.144 144.299-172.331 299.648-157.013zM262.827 183.979c32.171 65.152 115.712 101.973 189.696 82.773 76.501-19.755 115.499-91.904 84.309-162.133-31.744-71.765-122.965-109.995-200.32-85.035-74.752 24.149-106.368 97.877-73.685 164.395zM324.523 73.6c24.235-10.965 56.533-0.555 71.509 23.467 14.763 24.235 6.955 51.925-17.365 62.251-24.021 10.112-55.083-0.341-69.973-23.595-15.104-23.339-8.064-51.285 15.829-62.123zM418.645 150.741c9.344-3.925 21.376 0.512 26.795 9.856 5.248 9.387 1.877 19.883-7.595 23.381-9.216 3.584-20.736-0.768-26.155-9.899-5.248-9.131-2.304-19.541 6.955-23.339zM847.915 394.667c-4.084-12.631-15.741-21.606-29.493-21.606-17.084 0-30.933 13.849-30.933 30.933 0 3.549 0.598 6.958 1.698 10.132l-0.065-0.217c1.866 5.488 2.943 11.809 2.943 18.382 0 15.232-5.784 29.112-15.274 39.566l0.044-0.049c-10.925 11.959-26.588 19.432-43.996 19.432-4.38 0-8.65-0.473-12.761-1.371l0.393 0.072c-1.943-0.435-4.174-0.684-6.464-0.684-17.061 0-30.892 13.831-30.892 30.892 0 14.771 10.368 27.121 24.223 30.17l0.205 0.038c7.599 1.698 16.327 2.671 25.282 2.671 66.828 0 121.003-54.175 121.003-121.003 0-13.353-2.163-26.201-6.158-38.213l0.246 0.854zM680.832 675.2c15.586 3.474 33.488 5.464 51.855 5.464 73.155 0 138.936-31.575 184.458-81.839l0.189-0.212c39.777-43.958 64.12-102.534 64.12-166.796 0-27.367-4.415-53.703-12.571-78.334l0.505 1.759c-4.764-14.527-18.201-24.833-34.046-24.833-3.998 0-7.843 0.656-11.433 1.867l0.252-0.074c-14.557 4.841-24.869 18.338-24.869 34.244 0 3.956 0.638 7.762 1.816 11.323l-0.073-0.254c5.443 16.253 8.584 34.967 8.584 54.415 0 97.626-79.142 176.768-176.768 176.768-13.075 0-25.819-1.42-38.085-4.113l1.17 0.216c-1.7-0.284-3.658-0.446-5.654-0.446-19.912 0-36.053 16.142-36.053 36.053 0 16.55 11.151 30.495 26.35 34.732l0.254 0.060z" />
<glyph unicode="&#xe047;" glyph-name="file-copy-fill" d="M298.667 544v128c0 23.564 19.102 42.667 42.667 42.667h512c23.564 0 42.667-19.103 42.667-42.667v0-597.333c0-23.564-19.103-42.667-42.667-42.667v0h-128v-128c0-23.552-19.2-42.667-42.965-42.667h-511.403c-0.076 0-0.166-0.001-0.256-0.001-23.573 0-42.685 19.098-42.709 42.665v0.002l0.128 597.333c0 23.552 19.2 42.667 42.965 42.667h127.573zM384 544h341.333v-426.667h85.333v512h-426.667v-85.333z" />
<glyph unicode="&#xe048;" glyph-name="hand-heart-fill" d="M398.080 309.333h92.587c106.039 0 192-85.961 192-192v0h-298.709l0.043-42.667h341.333v42.667c-0.145 47.568-14.223 91.819-38.364 128.92l0.562-0.92h123.136c0.017 0 0.038 0 0.059 0 84.497 0 157.521-49.125 192.068-120.373l0.556-1.27c-100.907-133.163-264.277-219.691-448.683-219.691-117.803 0-217.6 25.173-298.667 69.333v396.971c54.444-7.992 102.745-29.684 142.688-61.438l-0.608 0.467zM170.667 416c21.803-0.003 39.784-16.359 42.348-37.47l0.020-0.205 0.299-4.992v-384c0-23.564-19.102-42.667-42.667-42.667h-85.333c-23.564 0-42.667 19.102-42.667 42.667v0 384c0 23.564 19.102 42.667 42.667 42.667h85.333zM582.229 647.467l15.104-15.147 15.104 15.104c19.335 19.497 46.132 31.567 75.749 31.567 58.91 0 106.667-47.756 106.667-106.667 0-29.627-12.079-56.433-31.581-75.762l-165.939-165.896-165.973 165.973c-19.497 19.335-31.567 46.132-31.567 75.749 0 58.91 47.756 106.667 106.667 106.667 29.627 0 56.433-12.079 75.762-31.581l0.008-0.008z" />
<glyph unicode="&#xe049;" glyph-name="plant-fill" d="M896 672v-85.333c0-164.949-133.717-298.667-298.667-298.667h-42.667v-42.667h213.333v-298.667c0-47.147-38.187-85.333-85.333-85.333h-341.333c-47.147 0-85.333 38.187-85.333 85.333v298.667h213.333v128c0 164.949 133.717 298.667 298.667 298.667h128zM234.667 714.667c107.904 0 203.307-53.376 261.291-135.211-43.52-57.216-69.291-128.683-69.291-206.123v-42.667h-21.333c-176.725 0-320 143.275-320 320v64h149.333z" />
<glyph unicode="&#xe04a;" glyph-name="qr-code-fill" d="M682.667 74.667v42.667h-128v128h128v-85.333h85.333v-85.333h-42.667v-85.333h-85.333v-85.333h-85.333v128h85.333v42.667h42.667zM896-96h-170.667v85.333h85.333v85.333h85.333v-170.667zM128 672h341.333v-341.333h-341.333v341.333zM554.667 672h341.333v-341.333h-341.333v341.333zM128 245.333h341.333v-341.333h-341.333v341.333zM768 245.333h128v-85.333h-128v85.333zM256 544v-85.333h85.333v85.333h-85.333zM256 117.333v-85.333h85.333v85.333h-85.333zM682.667 544v-85.333h85.333v85.333h-85.333z" />
<glyph unicode="&#xe04b;" glyph-name="arrow-left-s-line" d="M461.995 288l211.2-211.2-60.331-60.331-271.531 271.531 271.531 271.531 60.331-60.331z" />
<glyph unicode="&#xe04c;" glyph-name="arrow-down-s-line" d="M512 237.995l211.2 211.2 60.331-60.331-271.531-271.531-271.531 271.531 60.331 60.331z" />
<glyph unicode="&#xe04d;" glyph-name="arrow-right-s-line" d="M562.005 288l-211.2 211.2 60.331 60.331 271.531-271.531-271.531-271.531-60.331 60.331z" />
<glyph unicode="&#xe04e;" glyph-name="arrow-up-s-line" d="M512 338.005l-211.2-211.2-60.331 60.331 271.531 271.531 271.531-271.531-60.331-60.331z" />
<glyph unicode="&#xe050;" glyph-name="right" d="M621.254-77.254l320 320c24.994 24.992 24.994 65.516 0 90.51l-320 320c-24.994 24.992-65.516 24.992-90.51 0-24.994-24.994-24.994-65.516 0-90.51l210.746-210.746h-613.49c-35.346 0-64-28.654-64-64s28.654-64 64-64h613.49l-210.746-210.746c-12.496-12.496-18.744-28.876-18.744-45.254s6.248-32.758 18.744-45.254c24.994-24.994 65.516-24.994 90.51 0z" />
<glyph unicode="&#xe051;" glyph-name="book-mark-fill" d="M853.333-138.667h-576c-82.475 0-149.333 66.859-149.333 149.333v0 576c0 70.692 57.308 128 128 128v0h597.333c23.564 0 42.667-19.103 42.667-42.667v0-768c0-23.564-19.103-42.667-42.667-42.667v0zM810.667-53.333v128h-533.333c-35.346 0-64-28.654-64-64s28.654-64 64-64v0h533.333zM426.667 629.333v-341.333l149.333 85.333 149.333-85.333v341.333h-298.667z" />
<glyph unicode="&#xe052;" glyph-name="star-smile-fill" d="M512 778.667l180.309-263.808 306.645-89.984-195.2-253.013 9.173-319.403-300.928 107.435-300.928-107.435 9.173 319.403-195.2 253.013 306.645 89.984 180.309 263.808zM426.667 288h-85.333c0 0 0-0.001 0-0.001 0-94.257 76.41-170.667 170.667-170.667 91.256 0 165.783 71.622 170.436 161.72l0.017 0.415 0.213 8.533h-85.333c0.001-0.114 0.001-0.248 0.001-0.382 0-47.128-38.205-85.333-85.333-85.333-45.011 0-81.882 34.849-85.105 79.037l-0.016 0.278-0.213 6.4z" />
<glyph unicode="&#xe053;" glyph-name="clipboard-fill" d="M256 629.333v-170.667h512v170.667h85.632c23.381 0 42.368-18.987 42.368-42.368v-683.264c-0.024-23.389-18.979-42.344-42.366-42.368h-683.266c-23.389 0.024-42.344 18.979-42.368 42.366v683.266c0 23.381 18.987 42.368 42.368 42.368h85.632zM341.333 714.667h341.333v-170.667h-341.333v170.667z" />
<glyph unicode="&#xe054;" glyph-name="chat-new-fill" d="M275.413-10.667l-190.080-149.333v789.333c0 23.564 19.103 42.667 42.667 42.667v0h768c23.564 0 42.667-19.103 42.667-42.667v0-597.333c0-23.564-19.103-42.667-42.667-42.667v0h-620.587zM469.333 373.333h-128v-85.333h128v-128h85.333v128h128v85.333h-128v128h-85.333v-128z" />
<glyph unicode="&#xe055;" glyph-name="image-2-fill" d="M213.333 326.4l85.333 85.333 234.667-234.667 149.333 149.333 128-128v388.267h-597.333v-260.267zM170.667 672h682.667c23.564 0 42.667-19.103 42.667-42.667v0-682.667c0-23.564-19.103-42.667-42.667-42.667v0h-682.667c-23.564 0-42.667 19.103-42.667 42.667v682.667c0 23.564 19.103 42.667 42.667 42.667v0zM661.333 373.333c-35.346 0-64 28.654-64 64s28.654 64 64 64v0c35.346 0 64-28.654 64-64s-28.654-64-64-64v0z" />
<glyph unicode="&#xe056;" glyph-name="image-add-fill" d="M896 160v-128h128v-85.333h-128v-128h-85.333v128h-128v85.333h128v128h85.333zM896.341 672c23.381 0 42.325-18.987 42.325-42.368v-398.891c-25.348 9.245-54.611 14.592-85.122 14.592-0.074 0-0.149 0-0.223 0h0.012v341.333h-682.667l0.043-597.333 396.459 396.501c7.718 7.743 18.394 12.534 30.189 12.534 9.89 0 18.993-3.368 26.225-9.020l-0.094 0.071 3.968-3.627 151.296-151.467c-105.917-33.013-181.47-130.186-181.47-245.006 0-30.598 5.366-59.944 15.207-87.146l-0.564 1.784-484.267 0.043c-23.381 0.024-42.325 18.984-42.325 42.368v0 683.264c0.168 23.317 19.012 42.176 42.307 42.368h768.701zM341.333 501.333c47.128 0 85.333-38.205 85.333-85.333s-38.205-85.333-85.333-85.333v0c-47.128 0-85.333 38.205-85.333 85.333s38.205 85.333 85.333 85.333v0z" />
<glyph unicode="&#xe057;" glyph-name="baidu-fill" d="M252.885 266.795c88.021 18.901 76.032 124.117 73.387 147.115-4.309 35.413-45.995 97.365-102.613 92.459-71.253-6.4-81.621-109.269-81.621-109.269-9.643-47.573 23.040-149.205 110.848-130.304zM346.325 83.84c-2.56-7.381-8.32-26.283-3.328-42.752 9.813-36.949 41.899-38.613 41.899-38.613h46.080v112.64h-49.365c-22.187-6.571-32.853-23.851-35.285-31.275zM416.213 443.179c48.64 0 87.893 55.979 87.893 125.141 0 69.12-39.253 125.013-87.893 125.013-48.512 0-87.893-55.893-87.893-125.013 0-69.163 39.381-125.141 87.893-125.141zM625.621 434.944c64.939-8.448 106.709 60.885 115.029 113.451 8.491 52.48-33.451 113.408-79.445 123.904-46.080 10.581-103.637-63.275-108.885-111.36-6.272-58.88 8.405-117.675 73.301-125.995zM625.621 287.829c-79.573 123.947-192.555 73.515-230.4 10.453-37.589-63.019-96.256-102.827-104.576-113.408-8.448-10.411-121.429-71.381-96.341-182.784 25.045-111.317 113.152-109.227 113.152-109.227s64.896-6.4 140.203 10.496c75.349 16.683 140.203-4.181 140.203-4.181s176-58.88 224.128 54.528c48.128 113.493-27.179 172.288-27.179 172.288s-100.523 77.781-159.232 161.835zM369.28-42.837c-49.408 9.856-69.077 43.563-71.552 49.323-2.432 5.845-16.469 32.939-9.045 79.061 21.333 69.077 82.219 74.027 82.219 74.027h60.928v74.88l51.84-0.853v-276.437h-114.347zM565.12-42.027c-51.029 13.141-53.376 49.408-53.376 49.408v145.579l53.376 0.853v-130.816c3.285-13.995 20.608-16.512 20.608-16.512h54.229v146.475h56.832v-194.987h-131.669zM883.157 346.667c0 25.173-20.907 100.864-98.347 100.864-77.611 0-87.979-71.467-87.979-121.984 0-48.213 4.053-115.499 100.437-113.365 96.427 2.133 85.888 109.227 85.888 134.485z" />
<glyph unicode="&#xe058;" glyph-name="window-fill" d="M128 672h768c23.564 0 42.667-19.103 42.667-42.667v0-682.667c0-23.564-19.103-42.667-42.667-42.667v0h-768c-23.564 0-42.667 19.103-42.667 42.667v0 682.667c0 23.564 19.103 42.667 42.667 42.667v0zM853.333 373.333h-682.667v-384h682.667v384zM213.333 544v-85.333h85.333v85.333h-85.333zM384 544v-85.333h85.333v85.333h-85.333z" />
<glyph unicode="&#xe059;" glyph-name="skip-back-fill" d="M341.333 316.459l436.181 290.773c3.322 2.238 7.415 3.573 11.819 3.573 11.778 0 21.327-9.545 21.333-21.322v-602.966c-0.006-11.777-9.555-21.322-21.333-21.322-4.404 0-8.497 1.335-11.895 3.621l0.076-0.048-436.181 290.773v-270.208c-0.037-23.536-19.125-42.601-42.667-42.601s-42.629 19.065-42.667 42.598v597.337c0 0.019 0 0.042 0 0.065 0 23.564 19.103 42.667 42.667 42.667s42.667-19.103 42.667-42.667c0-0.023 0-0.046 0-0.069v0.004-270.208z" />
<glyph unicode="&#xe05a;" glyph-name="play-list-2-line" d="M938.667 32v-85.333h-853.333v85.333h853.333zM85.333 650.667l341.333-213.333-341.333-213.333v426.667zM938.667 330.667v-85.333h-426.667v85.333h426.667zM170.667 496.725v-118.784l94.976 59.392-94.976 59.392zM938.667 629.333v-85.333h-426.667v85.333h426.667z" />
<glyph unicode="&#xe05b;" glyph-name="skip-forward-fill" d="M682.667 259.541l-436.181-290.773c-3.322-2.238-7.415-3.573-11.819-3.573-11.778 0-21.327 9.545-21.333 21.322v602.966c0.006 11.777 9.555 21.322 21.333 21.322 4.404 0 8.497-1.335 11.895-3.621l-0.076 0.048 436.181-290.773v270.208c0.037 23.536 19.125 42.601 42.667 42.601s42.629-19.065 42.667-42.598v-597.337c-0.037-23.536-19.125-42.601-42.667-42.601s-42.629 19.065-42.667 42.598v270.212z" />
<glyph unicode="&#xe05c;" glyph-name="download-cloud-fill" d="M298.667-95.189c-143.755 11.37-256.101 130.825-256.101 276.519 0 98.899 51.768 185.708 129.685 234.806l1.147 0.675c22.284 168.925 165.376 297.95 338.603 297.95s316.319-129.025 338.415-296.216l0.187-1.734c79.064-49.773 130.832-136.581 130.832-235.481 0-145.695-112.347-265.149-255.134-276.458l-0.967-0.062v-0.811h-426.667v0.811zM554.667 288v170.667h-85.333v-170.667h-128l170.667-213.333 170.667 213.333h-128z" />
<glyph unicode="&#xe05d;" glyph-name="play-fill" d="M826.709 270.251l-452.224-301.483c-3.322-2.238-7.415-3.573-11.819-3.573-11.778 0-21.327 9.545-21.333 21.322v602.966c0.006 11.777 9.555 21.322 21.333 21.322 4.404 0 8.497-1.335 11.895-3.621l-0.076 0.048 452.224-301.483c5.76-3.881 9.498-10.378 9.498-17.749s-3.738-13.869-9.422-17.701l-0.076-0.048z" />
<glyph unicode="&#xe05e;" glyph-name="pause-fill" d="M256 586.667h85.333v-597.333h-85.333v597.333zM682.667 586.667h85.333v-597.333h-85.333v597.333z" />
<glyph unicode="&#xe05f;" glyph-name="xiaxiangshuangjiantou" horiz-adv-x="939" d="M911.28 660.067l-387.337-387.337c-30.557-30.547-80.089-30.547-110.646 0l-387.337 387.337c-29.655 30.704-29.23 79.509 0.953 109.692s78.989 30.608 109.692 0.953l332.015-332.015 332.015 332.015c19.646 20.342 48.74 28.5 76.099 21.339s48.724-28.527 55.885-55.885c7.161-27.359-0.997-56.452-21.339-76.099zM911.28 190.567l-387.337-387.337c-30.557-30.547-80.089-30.547-110.646 0l-387.337 387.337c-29.655 30.704-29.23 79.509 0.953 109.692s78.989 30.608 109.692 0.953l332.015-332.015 332.015 332.015c30.704 29.654 79.509 29.23 109.692-0.953s30.608-78.989 0.953-109.692v0z" />
<glyph unicode="&#xe060;" glyph-name="spinner-solid" d="M608 704c0 53-43 96-96 96s-96-43-96-96 43-96 96-96 96 43 96 96zM608-128c0 53-43 96-96 96s-96-43-96-96 43-96 96-96 96 43 96 96zM96 192c53 0 96 43 96 96s-43 96-96 96-96-43-96-96 43-96 96-96zM1024 288c0 53-43 96-96 96s-96-43-96-96 43-96 96-96 96 43 96 96zM285.8-74c37.4 37.4 37.4 98.2 0 135.8s-98.2 37.4-135.8 0-37.4-98.2 0-135.8 98.2-37.4 135.8 0zM285.8 514.4c37.4 37.4 37.4 98.2 0 135.8s-98.4 37.4-135.8-0.2-37.4-98.2 0-135.8 98.2-37.4 135.8 0zM738.2-74c37.4-37.4 98.2-37.4 135.8 0s37.4 98.2 0 135.8-98.2 37.4-135.8 0-37.4-98.2 0-135.8z" />
<glyph unicode="&#xe061;" glyph-name="Home" d="M168.832 440.96l320.981 196.053c6.33 3.923 14.008 6.248 22.229 6.248s15.899-2.325 22.412-6.354l-0.183 0.105 320.939-196.096c24.629-15.257 40.789-42.134 40.789-72.785 0-0.002 0-0.003 0-0.005v0-378.795c0-47.128-38.205-85.333-85.333-85.333v0h-597.333c-47.128 0-85.333 38.205-85.333 85.333v378.795c0 0.006 0 0.014 0 0.021 0 30.669 16.179 57.558 40.467 72.6l0.365 0.211zM426.667 245.333c-23.564 0-42.667-19.102-42.667-42.667v0-128c0-23.564 19.103-42.667 42.667-42.667v0h170.667c23.564 0 42.667 19.103 42.667 42.667v128c0 23.564-19.103 42.667-42.667 42.667h-170.667z" />
<glyph unicode="&#xe063;" glyph-name="danao" d="M710.965 592.721c25.588 17.168 61.309 21.565 85.769 9.263 30.912-15.562 46.466-39.103 46.466-66.966 0-13.981-5.397-32.853-17.124-51.824-11.604-18.773-27.183-34.014-43.056-42.685-19.174-10.477-29.175-32.441-24.545-53.906s22.778-37.274 44.54-38.8c18.228-1.284 46.196-8.151 68.105-22.899 19.921-13.462 33.414-31.915 33.414-61.606 0-28.975-22.742-50.984-56.525-65.929l39.45-90.458c42.443 18.773 115.209 65.287 115.209 156.387 0 69.116-35.598 115.851-76.986 143.715-7.426 4.99-15.153 9.51-23.135 13.536 2.404 3.458 4.661 6.916 6.845 10.449 18.94 30.63 31.942 67.362 31.942 104.019 0 73.414-44.454 127.016-100.734 155.349-62.707 31.569-136.062 16.797-184.074-15.439-25.809-17.316-45.313-41.623-57.457-59.087-7.308-10.553-13.977-21.541-19.97-32.903l-0.368-0.692-0.196-0.395c0 0 0-0.049 43.866-22.133l43.866-22.108v-0.049l-0.024-0.049-0.025-0.025 0.049 0.124c0.971 1.868 1.985 3.713 3.042 5.533 2.306 4.026 5.765 9.732 10.157 16.031 9.323 13.413 20.485 26.184 31.476 33.545h0.024zM487.467 658.526c-52.452 0-85.082-28.234-110.277-57.234-9.316-10.72-22.775-16.871-36.923-16.871h-73.6v98.807h52.207c33.88 34.533 87.56 74.105 168.593 74.105 51.545 0 98.379-25.196 128.407-45.352 17.299-11.654 33.671-24.645 48.969-38.856 1.3-1.235 2.355-2.223 3.091-2.964l0.932-0.914 0.294-0.296 0.123-0.099 0.049-0.074-69.356-69.906-0.27 0.272c-3.129 2.999-6.336 5.915-9.617 8.744-9.104 7.861-18.664 15.169-28.63 21.886-25.171 16.871-51.937 28.753-73.993 28.753zM120.227 419.932c-32.498 53.366-33.812 120.25-3.435 174.869s87.702 88.44 149.874 88.427v-98.807c-34.885 0.039-65.005-24.585-72.13-58.969s10.701-69.081 42.69-83.091c20.707-9.106 32.56-31.274 28.709-53.692s-22.409-39.29-44.951-40.866c-18.228-1.284-46.196-8.151-68.105-22.899-19.921-13.462-33.414-31.915-33.414-61.606 0-28.975 22.742-50.984 56.525-65.929l-39.45-90.433c-42.443 18.749-115.209 65.262-115.209 156.362 0 69.116 35.598 115.851 76.986 143.715 7.115 4.817 14.475 9.115 21.908 12.919zM315.733 164.491c-54.197 0-98.133-44.237-98.133-98.807s43.936-98.807 98.133-98.807v-98.807c-108.395 0-196.267 88.475-196.267 197.614s87.871 197.614 196.267 197.614v-98.807zM364.8-33.123c-0.003-17.652 9.349-33.964 24.531-42.791s33.889-8.827 49.071 0c15.182 8.827 24.534 25.139 24.531 42.791h98.133c0-81.854-65.904-148.211-147.2-148.211s-147.2 66.356-147.2 148.211h98.133zM708.267 164.491c54.197 0 98.133-44.237 98.133-98.807s-43.936-98.807-98.133-98.807v-98.807c108.395 0 196.267 88.475 196.267 197.614s-87.872 197.614-196.267 197.614v-98.807zM659.2-33.123c0.003-17.652-9.349-33.964-24.531-42.791s-33.889-8.827-49.071 0c-15.182 8.827-24.534 25.139-24.531 42.791h-98.133c0-81.854 65.904-148.211 147.2-148.211s147.2 66.356 147.2 148.211h-98.133zM462.933-57.825v543.439h98.133v-543.439zM634.667 337.404c-40.648 0-73.6-33.178-73.6-74.105h-98.133c0 45.859 18.093 89.84 50.3 122.268s75.887 50.645 121.434 50.645v-98.807zM389.333 238.596c40.648 0 73.6-33.178 73.6-74.105h98.133c0 45.859-18.093 89.84-50.3 122.268s-75.887 50.645-121.434 50.645v-98.807z" />
<glyph unicode="&#xe064;" glyph-name="jiqiren" d="M740.648 692.574c30.071-5.012 50.387-33.453 45.374-63.524l-22.409-134.444h55.053c101.62 0 184-82.38 184-183.998v-245.331c0-101.619-82.38-183.998-184-183.998h-613.333c-101.62 0-184 82.38-184 183.998v245.331c0 101.619 82.381 183.998 184 183.998h55.053l-22.409 134.444c-5.012 30.070 15.304 58.511 45.374 63.524s58.512-15.304 63.524-45.374l24.533-147.199c0.302-1.806 0.51-3.606 0.633-5.395h279.916c0.123 1.791 0.331 3.589 0.633 5.395l24.533 147.199c5.012 30.070 33.454 50.386 63.524 45.374zM818.667 384.207h-613.333c-40.649 0-73.6-32.95-73.6-73.599v-245.331c0-40.649 32.951-73.599 73.6-73.599h613.333c40.649 0 73.6 32.95 73.6 73.599v245.331c0 40.649-32.951 73.599-73.6 73.599zM316.96 292.208c30.485 0 55.2-24.715 55.2-55.2v-49.066c0-30.485-24.715-55.199-55.2-55.199s-55.2 24.715-55.2 55.199v49.066c0 30.485 24.715 55.2 55.2 55.2zM707.040 292.208c30.485 0 55.2-24.715 55.2-55.2v-49.066c0-30.485-24.715-55.199-55.2-55.199s-55.2 24.715-55.2 55.199v49.066c0 30.485 24.715 55.2 55.2 55.2z" />
<glyph unicode="&#xe066;" glyph-name="aifadian" d="M232.748 678.893c31.482-0.701 52.353-11.273 59.579-32.066 9.657-24.944-3.993-42.672-36.975-60.983-7.162-3.976-13.127-7.001-27.069-13.812l-3.018-1.459 4.541-0.131c37.407-0.868 84.016 0.258 153.506 2.958l10.084 0.396c60.932 2.427 95.579 3.552 124.994 3.651l8.28 0.001c6.812-0.022 13.441-0.101 20.172-0.234 159.997-3.189 286.087-70.164 373.756-198.623 47.683-69.882 49.794-143.242 20.446-223.281l-0.906-2.371 1.609-0.4c6.421-1.722 12.49-4.12 18.29-7.314l4.301-2.547 2.899-1.825c5.498-3.477 8.763-5.652 12.693-8.514 27.142-19.767 39.846-42.733 30.513-72.974-5.184-16.735-16.952-30.574-33.427-39.262-0.365-0.201-0.365-0.201-0.889-0.461-20.82-10.509-47.444-11.662-71.598-3.296-5.202 1.857-9.892 3.342-19.854 6.364-1.11 0.347-3.287 1.035-5.608 1.77l-1.372 0.437-1.722-2.445c-17.557-23.67-46.422-47.477-82.649-67.588l-7.342-3.972c-96.222-50.724-221.481-68.82-351.155-40.466-110.887 24.293-184.677 69.975-218.489 136.357-23.939 46.995-24.143 100.443-6.341 141.293 11.071 23.052 38.152 51.586 79.172 85.497l4.44 3.634-2.824 3.996c-7.526 11.228-12.035 22.523-12.711 33.948l-0.072 4.291c0.372 16.184 8.497 30.498 22.436 39.939 26.157 17.864 58.495 13.403 92.903-4.127l3.521-1.844 5.009 3.395c3.443 2.341 6.854 4.649 10.231 6.924l0.248 0.177-0.641 0.117c-2.066 0.366-4.185 0.698-6.361 0.994l-6.703 0.778c-72.472 7.203-214.911 36.057-262.35 56.195-110.721 46.904-141.662 104.992-119.229 161.402 21.641 54.372 137.575 97.251 215.68 95.482zM76.010 552.618l-0.035-0.429c-0.67-22.728 35.067-48.869 85.645-70.297 40.072-16.977 175.050-44.523 243.403-51.314 29.662-2.913 53.338-10.339 72.022-20.826l2.955-1.732 1.272 0.803c27.682 17.471 53.086 32.952 70.799 43.41l4.265 2.508c14.923 10.334 35.859 4.635 45.14-11.124 9.083-15.468 3.949-35.367-11.502-44.541l-8.013-4.734-15.988-9.551c-2.659-1.6-5.315-3.204-7.966-4.811l-15.859-9.681c-134.308-82.571-254.955-171.685-273.046-209.305-9.803-22.524-9.492-55.923 5.137-84.675 23.854-46.783 84.003-82.5 174.496-102.315 158.177-34.628 309.239 13.201 367.476 78.172l2.624 3.032-1.23 1.315-1.677 2.111c-10.819 14.357-7.968 34.719 6.361 45.52 4.219 3.191 8.965 5.196 13.828 6.080l2.281 0.312-2.344 2.139c-2.35 2.256-4.489 4.511-6.383 6.688l-2.654 3.195c-11.174 14.046-8.845 34.473 5.216 45.736 12.116 9.597 29.414 9.105 40.987-0.46l2.169-1.96 2.362 5.81c24.801 62.871 24.941 114.287-7.365 164.931l-3.458 5.237c-76.459 111.981-181.163 167.49-321.353 170.279-6.417 0.125-12.735 0.2-19.246 0.221l-7.923-0.002c-28.184-0.099-61.812-1.187-122.447-3.566-160.287-6.375-226.215-5.144-271.555 8.88-1.638 0.427-1.638 0.427-2.469 0.75-0.153 0.060-0.153 0.060-0.255 0.1l-5.355 1.831c-12.294 4.462-22.228 10.007-29.831 16.904l-3.116 3.039c-3.109 3.244-5.411 6.966-6.914 10.916l-0.457 1.4zM608.145 137.592c18.726 0 33.874-15.168 33.874-33.904 0-18.755-15.142-33.924-33.874-33.924s-33.874 15.17-33.874 33.924c0 18.736 15.148 33.904 33.874 33.904zM896.608 89.291c-1.192-0.193-2.204-0.228-3.224-0.206l-0.224-0.007-0.219-0.018c-0.067-0.005-0.067-0.005-0.209-0.015-0.218-0.017-0.218-0.017-0.553-0.039-0.783-0.043-0.783-0.043-0.572 0.002l-0.791-0.005 1.772-0.597c2.229-0.713 4.632-1.461 7.777-2.428l3.413-1.046c0.63-0.194 0.63-0.194 1.26-0.389 10.076-3.109 15.317-4.788 20.954-6.782 6.739-2.334 13.835-2.512 18.85-0.841l1.682 0.704-1.2-0.482-1.015 0.801c-2.22 1.682-5.202 3.72-9.192 6.291l-3.185 2.031c-8.46 5.314-17.749 6.238-35.323 3.026zM389.332 207.336c18.726 0 33.874-15.165 33.874-33.9 0-18.758-15.142-33.929-33.874-33.929s-33.874 15.171-33.874 33.929c0 18.735 15.147 33.9 33.874 33.9z" />
<glyph unicode="&#xe067;" glyph-name="circle-exclamation-solid" d="M512-224c282.77 0 512 229.23 512 512s-229.23 512-512 512v0c-282.77 0-512-229.23-512-512s229.23-512 512-512v0zM512 544c26.6 0 48-21.4 48-48v-224c0-26.6-21.4-48-48-48s-48 21.4-48 48v224c0 26.6 21.4 48 48 48zM448 96c0 35.346 28.654 64 64 64s64-28.654 64-64v0c0-35.346-28.654-64-64-64s-64 28.654-64 64v0z" />
<glyph unicode="&#xe068;" glyph-name="jianben" d="M716.8 723.2c127.246 0 230.4-103.154 230.4-230.4v0-409.6c0-127.246-103.154-230.4-230.4-230.4h-409.6c-127.246 0-230.4 103.154-230.4 230.4v0 409.6c0 127.246 103.154 230.4 230.4 230.4h409.6M716.8 800h-409.6c-169.662 0-307.2-137.538-307.2-307.2v0-409.6c0-169.662 137.538-307.2 307.2-307.2v0h409.6c169.662 0 307.2 137.538 307.2 307.2v0 409.6c0 169.662-137.538 307.2-307.2 307.2v0zM335.616 477.952c-15.292-25.876-31.273-48.216-48.967-69.056l0.583 0.704-54.272 35.072c33.523 35.663 60.094 78.298 77.268 125.449l0.812 2.551 61.44-13.568-9.728-25.6h149.248v-55.808h-76.8c10.588-14.096 20.387-30.042 28.656-46.874l0.784-1.766-56.32-21.504c-12.794 27.215-25.931 50.207-40.637 72.056l1.213-1.912zM273.664 334.592h63.744v-332.8h-63.744zM352.768 432.384c26.74-23.575 50.877-48.686 72.822-75.65l0.906-1.15-47.104-32.512c-23.030 29.444-46.666 55.677-71.984 80.184l-0.208 0.2zM397.824 310.016h235.264v-241.92h-235.264zM458.496 215.552h114.944v43.008h-114.944zM573.44 120.832v44.288h-114.944v-44.288zM636.672 6.4l-15.36 57.856 54.016-2.048c12.8 0 19.2 8.96 19.2 25.6v261.12h-223.744v58.368h286.976v-336.896c0-43.264-23.296-65.024-70.144-65.024zM597.504 477.952c-12.354-22.958-24.825-42.461-38.566-60.964l0.934 1.316-54.016 35.072c27.848 33.734 49.528 73.717 62.616 117.412l0.616 2.396 60.928-13.568c-4.096-11.52-6.912-20.224-8.704-25.6h169.728v-55.808h-88.064c9.366-12.631 18.37-26.955 26.263-41.955l0.873-1.821-56.576-21.504c-12.326 25.394-24.763 46.776-38.573 67.153l1.197-1.873z" />
<glyph unicode="&#xe069;" glyph-name="bijiben" d="M876.437 147.144v403.936c0 53.659-34.282 46.207-34.282 46.207h-612.611c-56.64 0-49.188-34.282-49.188-34.282v-418.841l-149.054-83.47v-46.207h974.812v49.188l-129.677 83.47zM842.154 111.371h52.169v-10.434h-52.169v10.434zM907.738 94.975v-10.434h-52.169v10.434h52.169zM787.004 127.767h52.169v-10.434h-52.169v10.434zM784.023 94.975h52.169v-10.434h-52.169v10.434zM773.59 100.937v10.434h52.169v-10.434h-52.169zM722.911 127.767h52.169v-10.434h-52.169v10.434zM712.477 94.975h52.169v-10.434h-52.169v10.434zM706.515 100.937v10.434h53.659v-10.434h-53.659zM655.837 127.767h52.169v-10.434h-52.169v10.434zM639.441 111.371h52.169v-10.434h-52.169v10.434zM694.591 94.975v-10.434h-52.169v10.434h52.169zM584.291 127.767h52.169v-10.434h-52.169v10.434zM572.367 111.371h52.169v-10.434h-52.169v10.434zM624.536 94.975v-10.434h-52.169v10.434h52.169zM520.198 127.767h52.169v-10.434h-52.169v10.434zM505.293 100.937v10.434h52.169v-10.434h-52.169zM552.99 94.975v-10.434h-52.169v10.434h52.169zM454.614 127.767h52.169v-10.434h-52.169v10.434zM438.218 100.937v10.434h52.169v-10.434h-52.169zM481.444 94.975v-10.434h-52.169v10.434h52.169zM390.521 127.767h52.169v-10.434h-52.169v10.434zM371.144 100.937v10.434h52.169v-10.434h-52.169zM411.389 94.975v-10.434h-52.169v10.434h52.169zM324.937 127.767h52.169v-10.434h-52.169v10.434zM236.996 100.937v10.434h52.169v-10.434h-52.169zM269.788 94.975v-10.434h-52.169v10.434h52.169zM287.674 94.975h52.169v-10.434h-52.169v10.434zM304.070 100.937v10.434h52.169v-10.434h-52.169zM260.844 127.767h52.169v-10.434h-52.169v10.434zM196.751 127.767h52.169v-10.434h-52.169v10.434zM168.431 111.371h52.169v-10.434h-52.169v10.434zM146.073 94.975h52.169v-10.434h-52.169v10.434zM591.744 26.41h-128.186v19.377l128.186-1.491v-17.886zM38.754 59.202l19.377 11.924h931.587l14.905-11.924h-965.869z" />
<glyph unicode="&#xe06a;" glyph-name="xiangqing" d="M512 736c126.72-3.328 232.192-47.168 316.48-131.456 84.352-84.416 128.192-189.888 131.52-316.544-3.328-126.72-47.168-232.192-131.52-316.48-84.288-84.352-189.76-128.192-316.48-131.52-126.72 3.328-232.192 47.168-316.544 131.52-84.224 84.288-128.064 189.76-131.456 316.48 3.328 126.72 47.168 232.192 131.456 316.544 84.416 84.224 189.888 128.064 316.544 131.456zM579.008 460.992c0.65-0.025 1.414-0.039 2.181-0.039 15.701 0 30.026 5.889 40.887 15.58l-0.060-0.053c11.328 10.304 17.024 24.128 17.024 41.472s-5.696 31.232-17.024 41.536c-10.695 9.63-24.923 15.52-40.526 15.52-0.693 0-1.383-0.012-2.070-0.035l0.1 0.003c-0.587 0.020-1.277 0.032-1.97 0.032-15.604 0-29.831-5.89-40.581-15.568l0.055 0.048c-11.328-10.304-16.96-24.192-16.96-41.536 0-17.28 5.632-31.168 16.96-41.472 10.606-9.622 24.751-15.512 40.272-15.512 0.602 0 1.202 0.009 1.799 0.026l-0.088-0.002zM591.040 100.992c0 4.032 0.32 9.344 0.96 16s0.64 12.992 0 19.008l-52.992-60.992c-5.312-6.016-10.88-10.688-16.512-14.016-5.696-3.328-10.496-4.352-14.464-3.008-6.016 2.688-8.704 7.36-8 14.016l88 276.992c3.264 18.688 0.32 34.688-9.024 48s-24.32 21.312-44.992 24c-23.36-0.64-48.832-10.496-76.48-29.504-27.712-19.008-51.84-43.2-72.512-72.512v-14.976c-0.64-6.72-0.64-13.056 0-19.008l52.928 60.992c5.376 5.952 10.88 10.624 16.512 14.016 5.76 3.328 10.24 4.288 13.568 2.944 6.656-3.264 8.96-8.64 6.976-16l-87.040-275.968c-1.536-4.575-2.422-9.844-2.422-15.32 0-10.958 3.549-21.086 9.56-29.3l-0.098 0.14c9.344-13.056 25.664-21.888 49.024-26.56 33.28 0.64 61.312 10.368 83.968 29.056 24.314 20.67 45.173 44.378 62.278 70.747l0.762 1.253z" />
<glyph unicode="&#xe06c;" glyph-name="twitterx" d="M371.971 678.095l183.037-239.695 226.558 239.695h142.637l-305.451-323.172 332.705-435.685h-297.555l-199.737 261.562-247.193-261.562h-142.638l326.087 345.039-316.005 413.818h297.555zM320.043 574.805h-35.968l421.717-552.235h35.968l-421.717 552.235z" />
<glyph unicode="&#xe06d;" glyph-name="PostChat" d="M706.322 354.658c70.075 0 126.882-61.769 126.882-137.965s-56.807-137.965-126.882-137.965l-0.642 0.002 0.694-0.5-168.022 3.191c31.27 7.517 52.145 17.421 62.628 29.71 4.154 4.87 7.761 9.395 10.821 13.575-20.137 24.401-32.361 56.642-32.361 91.987 0 76.196 56.807 137.965 126.882 137.965zM707.199 276.212c-22.955 0-41.565-17.877-41.565-39.928v-35.492c0-22.051 18.61-39.928 41.565-39.928s41.565 17.877 41.565 39.928v35.492c0 22.051-18.61 39.928-41.565 39.928zM740.648 696.124c30.071-5.047 50.387-33.689 45.374-63.971l-22.409-135.391h55.053c101.62 0 184-82.96 184-185.295v-247.060c0-102.335-82.38-185.295-184-185.295h-613.333c-101.62 0-184 82.96-184 185.295v247.060c0 102.335 82.381 185.295 184 185.295h55.053l-22.409 135.391c-5.012 30.282 15.304 58.924 45.374 63.971s58.512-15.412 63.524-45.694l24.533-148.236c0.302-1.818 0.51-3.632 0.633-5.433h279.916c0.123 1.804 0.331 3.615 0.633 5.433l24.533 148.236c5.012 30.282 33.454 50.741 63.524 45.694zM818.667 385.584h-613.333c-40.649 0-73.6-33.183-73.6-74.118v-247.060c0-40.935 32.951-74.118 73.6-74.118h613.333c40.649 0 73.6 33.183 73.6 74.118v247.060c0 40.935-32.951 74.118-73.6 74.118zM316.96 292.937c30.485 0 55.2-24.889 55.2-55.588v-49.412c0-30.7-24.715-55.588-55.2-55.588s-55.2 24.889-55.2 55.588v49.412c0 30.7 24.715 55.588 55.2 55.588z" />
<glyph unicode="&#xe06e;" glyph-name="dice-line" d="M469.248 732.587c12.26 7.218 27.008 11.482 42.752 11.482s30.492-4.264 43.153-11.7l-0.401 0.218 320-185.259c25.639-15.040 42.581-42.467 42.581-73.851 0-0.002 0-0.003 0-0.005v0-370.944c-0.014-31.369-16.953-58.779-42.18-73.596l-0.401-0.218-320-185.301c-12.26-7.218-27.008-11.482-42.752-11.482s-30.492 4.264-43.153 11.7l0.401-0.218-320 185.259c-25.639 15.040-42.581 42.467-42.581 73.851 0 0.002 0 0.003 0 0.005v0 370.944c0.014 31.369 16.953 58.779 42.18 73.596l0.401 0.218 320 185.301zM192 473.472v-0.213l277.419-160.597c25.639-15.040 42.581-42.467 42.581-73.851 0-0.002 0-0.003 0-0.005v0-321.536l320 185.259v370.944l-320 185.259-320-185.259zM261.632 275.2c0 23.552-16.555 52.224-36.949 64s-36.949 2.219-36.949-21.333 16.555-52.224 36.949-64 36.949-2.219 36.949 21.333zM372.437-2.048c20.395-11.776 36.949-2.261 36.949 21.333 0 23.552-16.555 52.224-36.949 64s-36.949 2.219-36.949-21.333 16.555-52.224 36.949-64zM224.683 83.2c20.395-11.776 36.949-2.219 36.949 21.333s-16.555 52.224-36.949 64-36.949 2.219-36.949-21.333 16.555-52.224 36.949-64zM372.437 168.533c20.395-11.819 36.949-2.261 36.907 21.333 0 23.552-16.512 52.181-36.949 64-20.395 11.776-36.949 2.219-36.949-21.333 0-23.595 16.555-52.224 36.992-64zM635.648 458.667c20.395 11.776 20.395 30.891 0 42.667s-53.504 11.776-73.899 0c-20.437-11.776-20.437-30.891 0-42.667 20.395-11.776 53.504-11.776 73.899 0zM430.848 501.333c20.395-11.776 20.395-30.891 0-42.667s-53.504-11.776-73.899 0-20.395 30.891 0 42.667 53.504 11.776 73.899 0zM682.453 145.067c25.515 14.763 46.208 50.56 46.208 80s-20.693 41.387-46.165 26.667c-25.515-14.72-46.208-50.517-46.208-80 0-29.44 20.693-41.387 46.165-26.667z" />
</font>
</defs>
</svg>
